<svg xmlns="http://www.w3.org/2000/svg" width="1366" height="768"><path d="M851 465h312v187H851zm14 14v159h285V479zm-710-14h312v187H155zm14 14v159h285V479zm682-366h312v187H851zm14 14v159h285V127zm-710-14h312v187H155zm14 14v159h285V127z"/><path d="M898 496h218l1 10c2.45 5.511 3.678 6.807 9 10l13 1v89h-9c-6.62 1.823-7.446 2.307-12 8l-2 13H898l-1-11c-2.22-4.441-4.425-7.025-9-9-3.995-.813-7.923-1-12-1v-89l11-1c4.106-1.732 6.292-3.009 8.875-6.625 1.596-4.374 1.596-4.374 2.125-13.375m11 14-5 10c-4.314 3.775-7.721 5.935-13 8a1803 1803 0 0 0-.518 25.896c-.052 4.01-.123 8.017-.236 12.026-.11 3.871-.169 7.74-.195 11.613q-.027 2.212-.108 4.422c-.158 4.487-.173 8.682 1.057 13.043 2.372 2.329 4.454 3.53 7.505 4.82 5.355 2.532 7.946 8.082 10.495 13.18h196l5-9c4.44-4.36 7.277-6.138 13-9v-67l-11-6c-3.17-4.098-5.388-7.164-7-12zm-707-14h218l1 10c2.45 5.511 3.678 6.807 9 10l13 1v89h-9c-6.62 1.823-7.446 2.307-12 8l-2 13H202l-1-11c-2.22-4.441-4.425-7.025-9-9-3.995-.813-7.923-1-12-1v-89l11-1c4.106-1.732 6.292-3.009 8.875-6.625 1.596-4.374 1.596-4.374 2.125-13.375m11 14-5 10c-4.314 3.775-7.721 5.935-13 8a1803 1803 0 0 0-.518 25.896c-.052 4.01-.123 8.017-.236 12.026-.11 3.871-.169 7.74-.195 11.613q-.027 2.212-.108 4.422c-.158 4.487-.173 8.682 1.057 13.043 2.372 2.329 4.454 3.53 7.505 4.82 5.355 2.532 7.946 8.082 10.495 13.18h196l5-9c4.44-4.36 7.277-6.138 13-9v-67l-11-6c-3.17-4.098-5.388-7.164-7-12zm685-366h218l1 10c2.45 5.511 3.678 6.807 9 10l13 1v89h-9c-6.62 1.823-7.446 2.307-12 8l-2 13H898l-1-11c-2.22-4.441-4.425-7.025-9-9-3.995-.813-7.923-1-12-1v-89l11-1c4.106-1.732 6.292-3.009 8.875-6.625 1.596-4.374 1.596-4.374 2.125-13.375m11 14-5 10c-4.314 3.775-7.721 5.935-13 8a1803 1803 0 0 0-.518 25.896c-.052 4.01-.123 8.017-.236 12.026-.11 3.871-.169 7.74-.195 11.613q-.027 2.212-.108 4.422c-.158 4.487-.173 8.682 1.057 13.043 2.372 2.329 4.454 3.53 7.505 4.82 5.355 2.532 7.946 8.082 10.495 13.18h196l5-9c4.44-4.36 7.277-6.138 13-9v-67l-11-6c-3.17-4.098-5.388-7.164-7-12zm-707-14h218l1 10c2.45 5.511 3.678 6.807 9 10l13 1v89h-9c-6.62 1.823-7.446 2.307-12 8l-2 13H202l-1-11c-2.22-4.441-4.425-7.025-9-9-3.995-.813-7.923-1-12-1v-89l11-1c4.106-1.732 6.292-3.009 8.875-6.625 1.596-4.374 1.596-4.374 2.125-13.375m11 14-5 10c-4.314 3.775-7.721 5.935-13 8a1803 1803 0 0 0-.518 25.896c-.052 4.01-.123 8.017-.236 12.026-.11 3.871-.169 7.74-.195 11.613q-.027 2.212-.108 4.422c-.158 4.487-.173 8.682 1.057 13.043 2.372 2.329 4.454 3.53 7.505 4.82 5.355 2.532 7.946 8.082 10.495 13.18h196l5-9c4.44-4.36 7.277-6.138 13-9v-67l-11-6c-3.17-4.098-5.388-7.164-7-12z"/><path d="M1010 521h11v5l1.871.262c6.548 1.086 11.533 3.197 17.129 6.738-1.605 5.136-4.731 8.807-8 13l-11-5 1 11 2.414.848c7.614 2.88 12.873 5.726 16.586 13.152.7 7.061 1.007 13.483-3.383 19.348-4.838 4.943-9.763 7.224-16.617 7.652v7h-12l-1-6-2.09-.664c-6.372-2.15-13.032-4.518-17.91-9.336 0-4.592.685-5.332 3.5-8.75l1.969-2.422L995 571c5.309.98 9.471 4.2 14 7l1-12-4.5-1.125c-5.26-1.584-9.703-3.836-13.5-7.875-2.9-5.733-2.994-12.102-1.418-18.281 2.443-5.801 6.84-9.033 12.418-11.719 2.444-.673 4.45-.891 7-1zm-3 21c-.77 2.345-.77 2.345-1 5 1.334 1.835 1.334 1.835 3 3v-8zm14 29v9l4-3-1-5zm-707-50h11v5l1.871.262c6.548 1.086 11.533 3.197 17.129 6.738-1.605 5.136-4.731 8.807-8 13l-11-5 1 11 2.414.848c7.614 2.88 12.873 5.726 16.586 13.152.7 7.061 1.007 13.483-3.383 19.348-4.838 4.943-9.763 7.224-16.617 7.652v7h-12l-1-6-2.09-.664c-6.372-2.15-13.032-4.518-17.91-9.336 0-4.592.685-5.332 3.5-8.75l1.969-2.422L299 571c5.309.98 9.471 4.2 14 7l1-12-4.5-1.125c-5.26-1.584-9.703-3.836-13.5-7.875-2.9-5.733-2.994-12.102-1.418-18.281 2.443-5.801 6.84-9.033 12.418-11.719 2.444-.673 4.45-.891 7-1zm-3 21c-.77 2.345-.77 2.345-1 5 1.334 1.835 1.334 1.835 3 3v-8zm14 29v9l4-3-1-5zm685-402h11v5l1.871.262c6.548 1.086 11.533 3.197 17.129 6.738-1.605 5.136-4.731 8.807-8 13l-11-5 1 11 2.414.848c7.614 2.88 12.873 5.726 16.586 13.152.7 7.061 1.007 13.483-3.383 19.348-4.838 4.943-9.763 7.224-16.617 7.652v7h-12l-1-6-2.09-.664c-6.372-2.15-13.032-4.518-17.91-9.336 0-4.592.685-5.332 3.5-8.75l1.969-2.422L995 219c5.309.98 9.471 4.2 14 7l1-12-4.5-1.125c-5.26-1.584-9.703-3.836-13.5-7.875-2.9-5.733-2.994-12.102-1.418-18.281 2.443-5.801 6.84-9.033 12.418-11.719 2.444-.673 4.45-.891 7-1zm-3 21c-.77 2.345-.77 2.345-1 5 1.334 1.835 1.334 1.835 3 3v-8zm14 29v9l4-3-1-5zm-707-50h11v5l1.871.262c6.548 1.086 11.533 3.197 17.129 6.738-1.605 5.136-4.731 8.807-8 13l-11-5 1 11 2.414.848c7.614 2.88 12.873 5.726 16.586 13.152.7 7.061 1.007 13.483-3.383 19.348-4.838 4.943-9.763 7.224-16.617 7.652v7h-12l-1-6-2.09-.664c-6.372-2.15-13.032-4.518-17.91-9.336 0-4.592.685-5.332 3.5-8.75l1.969-2.422L299 219c5.309.98 9.471 4.2 14 7l1-12-4.5-1.125c-5.26-1.584-9.703-3.836-13.5-7.875-2.9-5.733-2.994-12.102-1.418-18.281 2.443-5.801 6.84-9.033 12.418-11.719 2.444-.673 4.45-.891 7-1zm-3 21c-.77 2.345-.77 2.345-1 5 1.334 1.835 1.334 1.835 3 3v-8zm14 29v9l4-3-1-5zm587 335h15v19h-15zm-696 0h15v19h-15zm696-352h15v19h-15zm-696 0h15v19h-15zm872 352h15q.04 4.469.063 8.938l.025 2.576.01 2.45.016 2.27C1103 572 1103 572 1102 573c-4.668.144-9.329.042-14 0zm-696 0h15q.04 4.469.063 8.938l.025 2.576.01 2.45.016 2.27C407 572 407 572 406 573c-4.668.144-9.329.042-14 0zm696-352h15q.04 4.469.063 8.938l.025 2.576.01 2.45.016 2.27C1103 220 1103 220 1102 221c-4.668.144-9.329.042-14 0zm-696 0h15q.04 4.469.063 8.938l.025 2.576.01 2.45.016 2.27C407 220 407 220 406 221c-4.668.144-9.329.042-14 0z"/></svg>