<svg xmlns="http://www.w3.org/2000/svg" width="920" height="512"><path fill="#131313" d="m260 283 2.566.8c2.937.996 5.82 2.09 8.711 3.216l3.251 1.235a2402 2402 0 0 1 10.41 3.999q3.582 1.373 7.166 2.742 5.374 2.055 10.745 4.12a1720 1720 0 0 0 21.03 7.931q3.484 1.296 6.97 2.596 2.131.791 4.268 1.569c1.945.709 3.883 1.434 5.82 2.163l3.215 1.185c4.728 2.397 7.821 6.157 10.864 10.413l1.59 2.211 1.644 2.32 1.71 2.407q1.71 2.41 3.414 4.822a271 271 0 0 0 4.509 6.095l2.492 3.363c.73.963 1.46 1.926 2.21 2.918 1.812 3.707 1.33 5.945.415 9.895a4384 4384 0 0 1-10.375 4l-2.984 1.156-2.852 1.094-2.634 1.016C352 367 352 367 350 367l.058 2.396q.268 11.19.489 22.379c.076 3.835.157 7.67.252 11.504q.136 5.553.233 11.107.042 2.116.1 4.233c.053 1.979.085 3.959.117 5.938l.074 3.412c-.374 3.506-1.126 5.284-3.323 8.031-2.162 1.204-2.162 1.204-4.71 2.03l-2.918.974-3.177 1-3.319 1.092a1487 1487 0 0 1-10.751 3.466q-3.689 1.197-7.376 2.398a4966 4966 0 0 1-14.785 4.781 1240 1240 0 0 0-18.46 6.142q-3.744 1.261-7.49 2.519a667 667 0 0 0-4.603 1.573c-2.107.727-4.22 1.431-6.337 2.13l-3.513 1.193c-7.49 1.477-14.507-.647-21.613-3.01l-2.59-.838c-2.797-.908-5.59-1.829-8.381-2.75l-5.86-1.918q-6.117-2.006-12.229-4.028a3318 3318 0 0 0-15.687-5.134 3172 3172 0 0 1-12.075-3.966q-2.89-.952-5.787-1.891c-2.692-.875-5.378-1.766-8.063-2.663l-2.418-.773c-3.018-1.023-5.47-1.977-7.854-4.125-1.35-2.96-1.364-5.279-1.345-8.531l.001-3.882.047-4.18q.009-2.143.013-4.287c.011-3.755.04-7.51.074-11.265.03-3.834.044-7.668.06-11.502q.05-11.278.146-22.555l-5.645-2.36-3.175-1.327a593 593 0 0 0-11.317-4.516C135 359 135 359 134 358c-.707-4.215.103-6.559 2.457-9.96a301 301 0 0 1 3.356-4.415q1.8-2.388 3.593-4.781l1.832-2.434c1.676-2.292 3.25-4.62 4.793-7.004l1.427-2.186q1.315-2.032 2.586-4.093c5.89-8.985 17.635-11.399 27.268-14.994l4.492-1.689q5.898-2.215 11.798-4.422 5.929-2.221 11.855-4.448 6.707-2.519 13.415-5.033l2.068-.775q2.02-.756 4.044-1.504a295 295 0 0 0 10.277-4.013c13.556-5.534 13.556-5.534 20.739-3.249m-14.818 11.134-1.945.724c-2.104.787-4.2 1.597-6.296 2.408q-2.208.833-4.419 1.664c-3.87 1.458-7.733 2.935-11.595 4.416-3.912 1.496-7.83 2.975-11.75 4.455a5281 5281 0 0 0-17.23 6.548c-4.976 1.9-9.956 3.79-14.947 5.651 2.356 2.356 4.053 2.847 7.206 3.892l3.3 1.103c1.187.39 2.373.78 3.596 1.18l3.71 1.234q3.904 1.298 7.813 2.585c3.937 1.297 7.871 2.603 11.805 3.91a3842 3842 0 0 0 18.405 6.054q4.17 1.376 8.324 2.797l4.24 1.413 3.45 1.176c5.696 1.185 10.942-.441 16.37-2.23l3.592-1.174 3.83-1.272 3.993-1.312q4.178-1.373 8.352-2.757a4379 4379 0 0 1 10.613-3.5q5.115-1.68 10.23-3.369l1.925-.634c7.798-2.57 15.549-5.237 23.246-8.096-3.142-2.095-6.034-3.26-9.563-4.598l-2.007-.764q-3.284-1.248-6.57-2.486l-4.578-1.733q-4.8-1.815-9.604-3.623a4228 4228 0 0 1-12.27-4.648 3796 3796 0 0 0-9.46-3.574q-2.262-.854-4.521-1.714-3.17-1.204-6.346-2.391l-3.64-1.375c-6.556-2.084-10.787-2.42-17.26.04M163 327c-1.343 1.36-1.343 1.36-2.488 3.219l-1.384 2.066-1.44 2.215q-1.47 2.209-2.946 4.414l-1.427 2.146c-1.585 2.338-3.27 4.584-5.002 6.815-2.511 2.745-2.511 2.745-2.313 5.125l1.8.692 32.855 12.637q3.437 1.321 6.876 2.639a1541 1541 0 0 1 17.857 6.963l3.605 1.421q3.412 1.346 6.816 2.72l3.084 1.212 2.705 1.08c2.629.696 3.903.66 6.402-.364 1.641-1.982 1.641-1.982 3.063-4.562 3.123-5.17 6.435-10.16 9.875-15.125l1.506-2.18Q244.22 357.565 246 355c-1.517-3.035-4.048-3.21-7.106-4.233l-2.64-.857-2.747-.911a2526 2526 0 0 0-8.945-2.937l-6.132-2.021a6615 6615 0 0 0-15.482-5.077c-3.643-1.191-7.283-2.39-10.923-3.588q-4.725-1.553-9.452-3.096l-4.382-1.435q-3.02-.989-6.043-1.966l-3.4-1.107c-2.754-.907-2.754-.907-5.748-.772m171.423 2.355-2.331.759q-3.817 1.246-7.631 2.503l-5.294 1.735a7515 7515 0 0 0-11.09 3.647 5130 5130 0 0 1-14.25 4.667q-5.464 1.786-10.927 3.588a2000 2000 0 0 1-5.255 1.72q-3.667 1.197-7.327 2.412l-2.213.715c-3.77 1.031-3.77 1.031-6.105 3.899 6.221 9.412 12.59 18.716 19 28 5.004-.75 9.542-2.599 14.242-4.395a4670 4670 0 0 0 11.633-4.418l6.094-2.312A5729 5729 0 0 0 362 353c-3.17-6.008-6.649-11.527-10.75-16.937-5.153-6.869-5.153-6.869-6.25-9.063-3.808 0-7.002 1.174-10.577 2.355M248 368a112 112 0 0 0-3.02 4.2l-1.85 2.665c-.64.932-1.282 1.863-1.942 2.822a867 867 0 0 1-5.589 8.021 134 134 0 0 0-3.61 5.499L230 393c-5.64-.347-10.432-2.103-15.617-4.168l-2.471-.961a1956 1956 0 0 1-7.787-3.058 4145 4145 0 0 0-7.68-3.005q-2.378-.928-4.752-1.867c-8.166-3.2-16.403-6.015-24.693-8.941v57l20.355 6.784q12.442 4.145 24.88 8.303l12.407 4.145 6.1 2.04q4.29 1.437 8.582 2.869l2.621.879c3.459 1.37 3.459 1.37 7.055 1.98v-87zm11 0v87l37-12 12.188-3.945 7.418-2.405 4.96-1.604q3.748-1.212 7.497-2.429l2.22-.716A171 171 0 0 0 341 428v-57c-15.252 5.274-15.252 5.274-30.309 11l-5.068 1.996a1616 1616 0 0 0-7.682 3.055 1087 1087 0 0 1-7.625 3.012l-2.316.943c-4.006 1.554-6.888 2.583-11 .994-1.922-2.047-1.922-2.047-3.75-4.75l-2.05-2.973c-.727-1.081-1.452-2.163-2.2-3.277q-1.854-2.715-3.722-5.42a501 501 0 0 1-2.396-3.515A167 167 0 0 0 260 368zM658 51l2.566.8c2.937.996 5.82 2.09 8.711 3.216l3.251 1.235a2402 2402 0 0 1 10.41 3.999q3.582 1.373 7.166 2.742 5.374 2.056 10.745 4.12a1720 1720 0 0 0 21.03 7.931l6.97 2.596q2.131.791 4.268 1.569c1.945.709 3.883 1.434 5.82 2.163l3.215 1.185c4.728 2.397 7.821 6.157 10.864 10.413l1.59 2.211 1.644 2.32 1.71 2.407q1.71 2.41 3.414 4.822a271 271 0 0 0 4.509 6.095l2.492 3.364c.73.962 1.46 1.925 2.21 2.917 1.812 3.707 1.33 5.945.415 9.895a4384 4384 0 0 1-10.375 4l-2.984 1.156-2.852 1.094-2.634 1.016C750 135 750 135 748 135l.058 2.396q.268 11.19.489 22.379c.076 3.835.157 7.67.252 11.504q.136 5.553.233 11.107.042 2.117.1 4.233c.053 1.979.085 3.959.117 5.938l.074 3.412c-.374 3.506-1.126 5.284-3.323 8.031-2.162 1.204-2.162 1.204-4.71 2.03l-2.918.974-3.177 1-3.319 1.092a1487 1487 0 0 1-10.751 3.466q-3.689 1.198-7.376 2.398a4966 4966 0 0 1-14.785 4.781 1240 1240 0 0 0-18.46 6.142q-3.744 1.261-7.49 2.519a667 667 0 0 0-4.603 1.573c-2.107.727-4.22 1.431-6.337 2.13l-3.513 1.193c-7.49 1.477-14.507-.647-21.613-3.01l-2.59-.838c-2.797-.908-5.59-1.829-8.381-2.75l-5.86-1.918q-6.117-2.006-12.229-4.028a3318 3318 0 0 0-15.687-5.134 3172 3172 0 0 1-12.075-3.966q-2.89-.952-5.787-1.891c-2.692-.875-5.378-1.766-8.063-2.663l-2.418-.773c-3.018-1.023-5.47-1.977-7.854-4.125-1.35-2.96-1.364-5.279-1.345-8.531l.001-3.882.047-4.18q.009-2.144.013-4.287c.011-3.755.04-7.51.074-11.265.03-3.834.044-7.668.06-11.502q.05-11.278.146-22.555l-5.645-2.36-3.175-1.327a593 593 0 0 0-11.317-4.516C533 127 533 127 532 126c-.707-4.215.103-6.559 2.457-9.96a301 301 0 0 1 3.356-4.415q1.8-2.388 3.593-4.781l1.832-2.434c1.676-2.292 3.25-4.62 4.793-7.004l1.427-2.186q1.316-2.032 2.586-4.093c5.89-8.985 17.635-11.399 27.269-14.994l4.491-1.689q5.898-2.215 11.798-4.422 5.929-2.221 11.855-4.448a18027 18027 0 0 1 15.483-5.808q2.02-.756 4.044-1.504a295 295 0 0 0 10.277-4.013C650.817 48.715 650.817 48.715 658 51m-14.818 11.134-1.945.724c-2.104.787-4.2 1.597-6.296 2.408q-2.208.834-4.419 1.664c-3.87 1.458-7.733 2.935-11.595 4.416-3.912 1.496-7.83 2.975-11.75 4.455a5281 5281 0 0 0-17.23 6.548c-4.976 1.9-9.956 3.79-14.947 5.651 2.356 2.356 4.053 2.847 7.206 3.892l3.3 1.103c1.187.39 2.373.78 3.596 1.18l3.71 1.234q3.904 1.298 7.813 2.585 5.905 1.947 11.805 3.91a3842 3842 0 0 0 18.405 6.054q4.17 1.376 8.324 2.797l4.24 1.413 3.45 1.176c5.696 1.185 10.942-.441 16.37-2.23l3.592-1.174 3.83-1.272 3.993-1.312q4.178-1.373 8.352-2.757a4379 4379 0 0 1 10.613-3.5q5.115-1.68 10.23-3.369l1.925-.634C713.552 94.526 721.303 91.86 729 89c-3.142-2.095-6.034-3.26-9.563-4.598l-2.007-.764q-3.284-1.248-6.57-2.486l-4.578-1.733q-4.8-1.815-9.604-3.623a4228 4228 0 0 1-12.27-4.648 3796 3796 0 0 0-9.46-3.574q-2.262-.854-4.521-1.714-3.17-1.205-6.346-2.391l-3.64-1.375c-6.556-2.084-10.787-2.42-17.26.04M561 95c-1.343 1.36-1.343 1.36-2.488 3.219l-1.384 2.066-1.44 2.215q-1.47 2.209-2.946 4.414l-1.427 2.146c-1.585 2.338-3.27 4.584-5.003 6.815-2.51 2.745-2.51 2.745-2.312 5.125l1.8.692 32.855 12.637q3.437 1.321 6.876 2.639a1541 1541 0 0 1 17.857 6.963l3.605 1.421q3.413 1.347 6.816 2.72l3.084 1.212 2.705 1.08c2.629.696 3.903.66 6.402-.364 1.641-1.982 1.641-1.982 3.063-4.562 3.123-5.17 6.435-10.16 9.875-15.125l1.506-2.18Q642.22 125.565 644 123c-1.517-3.035-4.048-3.21-7.106-4.233l-2.64-.857-2.747-.911a2394 2394 0 0 0-8.944-2.936l-6.133-2.022a6615 6615 0 0 0-15.482-5.077c-3.643-1.191-7.283-2.39-10.923-3.588q-4.724-1.553-9.452-3.096l-4.382-1.435q-3.02-.989-6.043-1.966l-3.4-1.107c-2.754-.907-2.754-.907-5.748-.772m171.423 2.355-2.331.759q-3.817 1.246-7.631 2.503l-5.294 1.735a7515 7515 0 0 0-11.09 3.647 5130 5130 0 0 1-14.25 4.667q-5.464 1.787-10.927 3.588a2000 2000 0 0 1-5.255 1.72q-3.667 1.197-7.327 2.412l-2.213.715c-3.77 1.031-3.77 1.031-6.105 3.899 6.221 9.412 12.59 18.716 19 28 5.004-.75 9.542-2.599 14.242-4.395a4670 4670 0 0 0 11.633-4.418l6.094-2.312A5729 5729 0 0 0 760 121c-3.17-6.008-6.649-11.527-10.75-16.937-5.153-6.869-5.153-6.869-6.25-9.063-3.808 0-7.002 1.174-10.577 2.355M646 136a112 112 0 0 0-3.02 4.2l-1.85 2.665c-.64.932-1.282 1.863-1.942 2.822a867 867 0 0 1-5.589 8.021 134 134 0 0 0-3.61 5.499L628 161c-5.64-.347-10.432-2.103-15.617-4.168l-2.471-.961a1956 1956 0 0 1-7.787-3.059 4145 4145 0 0 0-7.68-3.004q-2.378-.928-4.752-1.867c-8.166-3.2-16.403-6.015-24.693-8.941v57l20.355 6.784q12.442 4.145 24.88 8.303l12.407 4.145 6.1 2.04q4.29 1.437 8.582 2.869l2.621.879c3.459 1.37 3.459 1.37 7.055 1.98v-87zm11 0v87l37-12 12.188-3.945 7.418-2.405 4.96-1.604q3.749-1.212 7.496-2.429l2.222-.716A171 171 0 0 0 739 196v-57c-15.252 5.274-15.252 5.274-30.309 11l-5.068 1.996a1616 1616 0 0 0-7.682 3.055 1087 1087 0 0 1-7.625 3.012l-2.316.943c-4.006 1.554-6.888 2.583-11 .994-1.922-2.047-1.922-2.047-3.75-4.75l-2.05-2.973c-.727-1.081-1.452-2.163-2.2-3.277q-1.854-2.715-3.722-5.42a501 501 0 0 1-2.396-3.515A167 167 0 0 0 658 136zM201 51l2.566.8c2.937.996 5.82 2.09 8.711 3.216l3.251 1.235a2402 2402 0 0 1 10.41 3.999q3.582 1.373 7.166 2.742 5.374 2.056 10.745 4.12a1720 1720 0 0 0 21.03 7.931l6.97 2.596q2.131.791 4.268 1.569c1.945.709 3.883 1.434 5.82 2.163l3.215 1.185c4.728 2.397 7.821 6.157 10.864 10.413l1.59 2.211 1.644 2.32 1.71 2.407q1.71 2.41 3.414 4.822a271 271 0 0 0 4.509 6.095l2.492 3.364c.73.962 1.46 1.925 2.21 2.917 1.812 3.707 1.33 5.945.415 9.895a4384 4384 0 0 1-10.375 4l-2.984 1.156-2.852 1.094-2.634 1.016C293 135 293 135 291 135l.058 2.396q.268 11.19.489 22.379c.076 3.835.157 7.67.252 11.504q.136 5.553.233 11.107.042 2.117.1 4.233c.053 1.979.085 3.959.117 5.938l.074 3.412c-.374 3.506-1.126 5.284-3.323 8.031-2.162 1.204-2.162 1.204-4.71 2.03l-2.918.974-3.177 1-3.319 1.092a1487 1487 0 0 1-10.751 3.466q-3.689 1.198-7.376 2.398a4966 4966 0 0 1-14.785 4.781 1240 1240 0 0 0-18.46 6.142q-3.744 1.261-7.49 2.519a667 667 0 0 0-4.603 1.573c-2.107.727-4.22 1.431-6.337 2.13l-3.513 1.193c-7.49 1.477-14.507-.647-21.613-3.01l-2.59-.838c-2.797-.908-5.59-1.829-8.381-2.75l-5.86-1.918q-6.117-2.006-12.229-4.028a3318 3318 0 0 0-15.687-5.134 3172 3172 0 0 1-12.075-3.966q-2.89-.952-5.787-1.891c-2.692-.875-5.378-1.766-8.063-2.663l-2.418-.773c-3.018-1.023-5.47-1.977-7.854-4.125-1.35-2.96-1.364-5.279-1.345-8.531l.001-3.882.047-4.18q.009-2.144.013-4.287c.011-3.755.04-7.51.074-11.265.03-3.834.044-7.668.06-11.502q.05-11.278.146-22.555l-5.645-2.36-3.175-1.327a593 593 0 0 0-11.317-4.516C76 127 76 127 75 126c-.707-4.215.103-6.559 2.457-9.96a301 301 0 0 1 3.356-4.415q1.8-2.388 3.593-4.781l1.832-2.434c1.676-2.292 3.25-4.62 4.793-7.004l1.427-2.186q1.316-2.032 2.586-4.093c5.89-8.985 17.635-11.399 27.269-14.994l4.491-1.689q5.898-2.215 11.798-4.422 5.929-2.221 11.855-4.448a18027 18027 0 0 1 15.483-5.808q2.02-.756 4.044-1.504a295 295 0 0 0 10.277-4.013C193.817 48.715 193.817 48.715 201 51m-14.818 11.134-1.945.724c-2.104.787-4.2 1.597-6.296 2.408q-2.208.834-4.419 1.664c-3.87 1.458-7.733 2.935-11.595 4.416-3.912 1.496-7.83 2.975-11.75 4.455a5281 5281 0 0 0-17.23 6.548c-4.976 1.9-9.956 3.79-14.947 5.651 2.356 2.356 4.053 2.847 7.206 3.892l3.3 1.103c1.187.39 2.373.78 3.596 1.18l3.71 1.234q3.904 1.298 7.813 2.585 5.905 1.947 11.805 3.91a3842 3842 0 0 0 18.405 6.054q4.17 1.376 8.324 2.797l4.24 1.413 3.45 1.176c5.696 1.185 10.942-.441 16.37-2.23l3.592-1.174 3.83-1.272 3.993-1.312q4.178-1.373 8.352-2.757a4379 4379 0 0 1 10.613-3.5q5.115-1.68 10.23-3.369l1.925-.634C256.552 94.526 264.303 91.86 272 89c-3.142-2.095-6.034-3.26-9.563-4.598l-2.007-.764q-3.284-1.248-6.57-2.486l-4.578-1.733q-4.8-1.815-9.604-3.623a4228 4228 0 0 1-12.27-4.648 3796 3796 0 0 0-9.46-3.574q-2.262-.854-4.521-1.714-3.17-1.205-6.346-2.391l-3.64-1.375c-6.556-2.084-10.787-2.42-17.26.04M104 95c-1.343 1.36-1.343 1.36-2.488 3.219l-1.384 2.066-1.44 2.215q-1.47 2.209-2.946 4.414l-1.427 2.146c-1.585 2.338-3.27 4.584-5.002 6.815C86.802 118.62 86.802 118.62 87 121l1.8.692 32.855 12.637q3.437 1.321 6.876 2.639a1541 1541 0 0 1 17.857 6.963l3.605 1.421q3.412 1.347 6.816 2.72l3.084 1.212 2.705 1.08c2.629.696 3.903.66 6.402-.364 1.641-1.982 1.641-1.982 3.063-4.562 3.123-5.17 6.435-10.16 9.875-15.125l1.506-2.18Q185.22 125.565 187 123c-1.517-3.035-4.048-3.21-7.106-4.233l-2.64-.857-2.747-.911c-2.979-.986-5.962-1.962-8.945-2.936l-6.132-2.022a6615 6615 0 0 0-15.482-5.077c-3.643-1.191-7.283-2.39-10.923-3.588q-4.724-1.553-9.452-3.096l-4.382-1.435q-3.02-.989-6.043-1.966l-3.4-1.107c-2.754-.907-2.754-.907-5.748-.772m171.423 2.355-2.331.759q-3.817 1.246-7.631 2.503l-5.294 1.735a7515 7515 0 0 0-11.09 3.647 5130 5130 0 0 1-14.25 4.667q-5.464 1.787-10.927 3.588a2000 2000 0 0 1-5.255 1.72q-3.667 1.197-7.327 2.412l-2.213.715c-3.77 1.031-3.77 1.031-6.105 3.899 6.221 9.412 12.59 18.716 19 28 5.004-.75 9.542-2.599 14.242-4.395a4670 4670 0 0 0 11.633-4.418l6.094-2.312A5729 5729 0 0 0 303 121c-3.17-6.008-6.649-11.527-10.75-16.937-5.153-6.869-5.153-6.869-6.25-9.063-3.808 0-7.002 1.174-10.577 2.355M189 136a112 112 0 0 0-3.02 4.2l-1.85 2.665c-.64.932-1.282 1.863-1.942 2.822a867 867 0 0 1-5.589 8.021 134 134 0 0 0-3.61 5.499L171 161c-5.64-.347-10.432-2.103-15.617-4.168l-2.471-.961a1956 1956 0 0 1-7.787-3.059 4145 4145 0 0 0-7.68-3.004q-2.378-.928-4.752-1.867c-8.166-3.2-16.403-6.015-24.693-8.941v57l20.355 6.784q12.442 4.145 24.88 8.303l12.407 4.145 6.1 2.04q4.29 1.437 8.582 2.869l2.621.879c3.459 1.37 3.459 1.37 7.055 1.98v-87zm11 0v87l37-12 12.188-3.945 7.418-2.405 4.96-1.604q3.748-1.212 7.497-2.429l2.22-.716A171 171 0 0 0 282 196v-57c-15.252 5.274-15.252 5.274-30.309 11l-5.068 1.996a1616 1616 0 0 0-7.682 3.055 1087 1087 0 0 1-7.625 3.012l-2.316.943c-4.006 1.554-6.888 2.583-11 .994-1.922-2.047-1.922-2.047-3.75-4.75l-2.05-2.973c-.727-1.081-1.452-2.163-2.2-3.277q-1.854-2.715-3.722-5.42a501 501 0 0 1-2.396-3.515A167 167 0 0 0 201 136z"/><path fill="#121212" d="m721.789 283.92 3.4 1.28 3.65 1.41 3.828 1.448c4.095 1.55 8.183 3.12 12.27 4.692l4.192 1.609 2.098.805 8.33 3.194 4.12 1.583c7.895 3.036 15.805 5.982 23.83 8.66 14.433 4.876 24.083 9.124 31.25 23.123 2.277 4.17 5.144 7.937 7.93 11.776q1.509 2.139 3.012 4.281c1.972 2.944 1.972 2.944 3.301 4.219.437 2.312.437 2.312 0 5-4.403 3.445-9.02 5.372-14.25 7.25l-2.18.812C811.292 367 811.292 367 809 367l.034 2.523q.15 11.764.225 23.529c.026 4.032.062 8.064.118 12.096q.08 5.835.097 11.671.015 2.227.055 4.456c.036 2.078.04 4.155.039 6.234l.033 3.587C809 434 809 434 806.783 435.792c-2.61 1.133-5.17 2.152-7.876 3.026l-3.016.985-3.25 1.04-3.411 1.11a4411 4411 0 0 1-10.98 3.547 20333 20333 0 0 0-18.758 6.071c-7.077 2.297-14.13 4.65-21.156 7.097l-4.556 1.574c-2.05.71-4.096 1.424-6.136 2.16-1.821.656-3.65 1.29-5.48 1.922l-2.986 1.065c-9.031 1.736-17.508-1.904-25.96-4.8l-4.018-1.35a2991 2991 0 0 1-10.565-3.576c-5.556-1.888-11.118-3.758-16.68-5.632l-6.12-2.07a1110 1110 0 0 0-29.424-9.497l-2.89-.903-2.515-.773C619 436 619 436 617 434c-.24-2.784-.24-2.784-.227-6.377v-1.982c0-2.164.016-4.328.032-6.493l.008-4.497c.008-3.95.028-7.898.05-11.847.02-4.028.03-8.057.04-12.085q.032-11.86.097-23.719l-2.063-.61-2.716-.808-2.689-.797c-3.085-.956-6.054-2.098-9.032-3.348l-3.031-1.253C595 359 595 359 593 357c-.71-3.67.006-5.01 2.02-8.207a257 257 0 0 1 2.792-3.606q1.518-1.986 3.028-3.98l1.581-2.08c3.078-4.148 5.93-8.455 8.785-12.76.425-.628.849-1.258 1.286-1.906l1.105-1.663c3.762-4.822 7.231-7.498 12.971-9.625l1.94-.732a732 732 0 0 1 6.336-2.336q2.236-.833 4.468-1.67a2482 2482 0 0 1 11.793-4.365c3.926-1.447 7.846-2.908 11.766-4.369a4676 4676 0 0 1 13.662-5.07c6.406-2.365 12.802-4.743 19.158-7.238l2.95-1.153q2.591-1.02 5.173-2.067l2.254-.887 1.886-.76c5.017-1.289 9.088-.415 13.835 1.395m-17.607 10.214-1.945.724c-2.104.787-4.2 1.597-6.296 2.408q-2.208.833-4.419 1.664c-3.87 1.458-7.733 2.935-11.595 4.416-3.912 1.496-7.83 2.975-11.75 4.455a5281 5281 0 0 0-17.23 6.548c-4.976 1.9-9.956 3.79-14.947 5.651 2.356 2.356 4.053 2.847 7.206 3.892l3.3 1.103c1.187.39 2.373.78 3.596 1.18l3.71 1.234q3.904 1.298 7.813 2.585 5.905 1.947 11.805 3.91a3842 3842 0 0 0 18.405 6.054q4.17 1.376 8.324 2.797l4.24 1.413 3.45 1.176c5.696 1.185 10.942-.441 16.37-2.23l3.592-1.174 3.83-1.272 3.993-1.312q4.178-1.373 8.352-2.757 5.304-1.756 10.613-3.5 5.115-1.68 10.23-3.369l1.925-.634c7.798-2.57 15.549-5.237 23.246-8.096-3.142-2.095-6.034-3.26-9.563-4.598l-2.007-.764q-3.284-1.248-6.57-2.486l-4.578-1.733q-4.8-1.815-9.604-3.623a4228 4228 0 0 1-12.27-4.648 3796 3796 0 0 0-9.46-3.574q-2.262-.854-4.521-1.714-3.17-1.204-6.346-2.391l-3.64-1.375c-6.556-2.084-10.787-2.42-17.26.04M622 327c-1.343 1.36-1.343 1.36-2.488 3.219l-1.384 2.066-1.44 2.215q-1.47 2.209-2.946 4.414l-1.427 2.146c-1.585 2.338-3.27 4.584-5.003 6.815-2.51 2.745-2.51 2.745-2.312 5.125l1.8.692 32.855 12.637q3.437 1.321 6.876 2.639a1541 1541 0 0 1 17.857 6.963l3.605 1.421q3.413 1.346 6.816 2.72l3.084 1.212 2.705 1.08c2.629.696 3.903.66 6.402-.364 1.641-1.982 1.641-1.982 3.062-4.563 3.124-5.169 6.436-10.16 9.875-15.125l1.507-2.18Q703.22 357.566 705 355c-1.517-3.035-4.048-3.21-7.106-4.233l-2.64-.857-2.747-.911a2526 2526 0 0 0-8.945-2.937l-6.132-2.021q-7.738-2.548-15.482-5.077c-3.643-1.191-7.283-2.39-10.923-3.588q-4.725-1.553-9.452-3.096l-4.382-1.435q-3.02-.989-6.043-1.966l-3.4-1.107c-2.754-.907-2.754-.907-5.748-.772m171.423 2.355-2.331.759q-3.817 1.246-7.631 2.503l-5.294 1.735a7515 7515 0 0 0-11.09 3.647 5130 5130 0 0 1-14.25 4.667q-5.464 1.786-10.927 3.588-2.626.863-5.255 1.72-3.667 1.197-7.327 2.412l-2.213.715c-3.77 1.031-3.77 1.031-6.105 3.899 6.221 9.412 12.59 18.716 19 28 5.004-.75 9.542-2.599 14.242-4.395a4670 4670 0 0 0 11.633-4.418l6.094-2.312A5729 5729 0 0 0 821 353c-3.17-6.008-6.649-11.527-10.75-16.938-5.153-6.868-5.153-6.868-6.25-9.062-3.808 0-7.002 1.174-10.577 2.355M707 368a112 112 0 0 0-3.02 4.2l-1.85 2.665c-.64.932-1.282 1.863-1.943 2.822a867 867 0 0 1-5.588 8.021 134 134 0 0 0-3.61 5.499L689 393c-5.64-.347-10.432-2.103-15.617-4.168l-2.471-.961a1956 1956 0 0 1-7.787-3.059 4145 4145 0 0 0-7.68-3.004q-2.378-.928-4.752-1.867c-8.166-3.2-16.403-6.015-24.693-8.941v57l20.355 6.784q12.442 4.145 24.88 8.303l12.407 4.145 6.1 2.04q4.29 1.437 8.582 2.869l2.621.879c3.459 1.37 3.459 1.37 7.055 1.98v-87zm11 0v87l37-12 12.187-3.945 7.42-2.405 4.958-1.604q3.75-1.212 7.497-2.429l2.222-.716A171 171 0 0 0 800 428v-57c-15.252 5.274-15.252 5.274-30.309 11l-5.068 1.996q-3.845 1.518-7.682 3.055c-2.537 1.016-5.08 2.015-7.625 3.011l-2.316.944c-4.006 1.554-6.888 2.583-11 .994-1.922-2.047-1.922-2.047-3.75-4.75l-2.05-2.973c-.727-1.081-1.452-2.163-2.2-3.277q-1.854-2.715-3.722-5.42a501 501 0 0 1-2.396-3.515A167 167 0 0 0 719 368z"/></svg>