<svg xmlns="http://www.w3.org/2000/svg" width="1024" height="1024"><path fill="#fafcfe" d="M407.77 105.43c5.35 3.223 9.723 6.37 13.23 11.57v2h2c5.076 8.613 8.545 17.5 11.75 26.938l.676 1.973c.941 2.83 1.574 5.084 1.574 8.089l2.238-1.348c7.237-4.037 12.614-5.96 20.762-3.652 4.496 2.296 6.339 5.74 8.219 10.273 1.471 5.135 1.617 10.412 1.781 15.727q2.311 1.065 4.625 2.125l3.07 1.41q3.212 1.427 6.485 2.711c14.35 5.69 29.174 14.548 40.82 24.754v2l1.744.768c26.866 14.679 44.927 52.859 53.299 80.841L581 295l.703 2.293c2.148 7.3 3.3 14.64 4.232 22.177.252 2.029.52 4.055.79 6.08 4.993 38.543-6.88 78.565-30.226 109.435C539.085 456.957 539.085 456.957 531 461c1.421 4.523 3.602 6.75 7 10l1.79 2.316c3.425 4.507 3.425 4.507 8.128 7.438 21.255 1.274 47.296-15.004 62.582-28.379 11.095-10.064 11.095-10.064 16.5-23.375a72 72 0 0 0-2.562-7c-2.602-6.534-4.798-13.118-6.75-19.875l-.77-2.59c-2.779-9.773-4.636-19.653.39-28.957 4.345-6.376 9.166-9.127 16.692-10.578 7.33-.735 13.5-.628 20 3 1.768-1.768 1.347-4.597 1.563-7 1.838-13.422 8.244-26.535 18.957-34.988 7.597-5.55 13.077-6.77 22.48-6.012 4.126 1.078 7.082 2.9 10 6l2.598-1.898 3.465-2.477 1.7-1.25c7.812-5.535 15.865-6.149 25.237-5.375 6.873 2.332 11.237 7.603 14.93 13.664 1.94 4.236 2.504 8.743 3.07 13.336l1.578-.48c7.324-1.572 16.17-1.895 22.742 2.082 5.475 4.558 9.135 10.4 9.915 17.556.744 13.081-.808 24.553-5.235 36.842l-.86 2.417c-8.383 23.088-20.59 44.218-35.532 63.677-6.716 8.768-11.638 17.533-16.159 27.594-2.512 5.565-5.366 10.91-8.324 16.25l-1.372 2.491c-1.888 3.39-3.797 6.7-6.01 9.887-1.574 2.423-2.156 3.935-2.743 6.684l2.45.487c9.013 1.855 17.829 4.16 26.677 6.67 3.966 1.125 7.935 2.236 11.904 3.347l2.363.662a919 919 0 0 0 19.043 5.084 772 772 0 0 1 23.69 6.497 503 503 0 0 0 13.865 3.823c1.49.39 1.49.39 3.01.79q2.855.744 5.717 1.46c8.38 2.199 12.805 5.3 18.281 12.18l2.324 2.309c2.801 2.817 5.38 5.772 7.926 8.816l1.447 1.718a810 810 0 0 1 8.928 10.845c3.572 4.391 7.309 8.593 11.121 12.777 3.13 3.521 6.077 7.181 9.035 10.847 2.816 3.41 5.779 6.67 8.785 9.91C894 622 894 622 894 624l3 1c12.676 13.493 12.676 13.493 13.148 20.063-.22 3.145-.79 5.462-2.695 7.992-3.32 2.633-6.684 3.654-10.703 4.883l-2.437.777A937 937 0 0 1 887 661l-3.863 1.215q-3.81 1.194-7.621 2.375c-6.604 2.053-13.186 4.177-19.77 6.292a4267 4267 0 0 1-19.669 6.253l-2.653.838L827 680q-.036 17.193-.052 34.385-.007 7.992-.023 15.984a10516 10516 0 0 0-.025 21.687c-.002 11.686.098 23.362.397 35.045l.081 3.21q.194 7.584.445 15.167l.156 5.432.097 2.443c.157 6.003-.108 12.049-3.857 16.999-8.099 6.017-19.856 8.133-29.446 10.925-4.85 1.426-9.666 2.947-14.484 4.477-12.048 3.824-24.148 7.478-36.246 11.142-10.801 3.272-21.59 6.575-32.347 9.991-6.8 2.156-13.626 4.22-20.46 6.267a1677 1677 0 0 0-37.112 11.602 1740 1740 0 0 1-29.933 9.423 1450 1450 0 0 0-19.566 6.134c-9.658 3.099-19.358 6.051-29.062 9-11.009 3.344-21.99 6.752-32.933 10.308q-2.89.935-5.786 1.86c-5.808 1.86-11.584 3.768-17.32 5.84l-3.07 1.057q-2.744.943-5.45 1.994c-8.44 2.832-15.865.237-24.004-2.372l-2.2-.704c-4.712-1.529-9.393-3.14-14.068-4.78-4.484-1.57-8.977-3.117-13.47-4.664l-2.816-.97c-9.942-3.416-19.941-6.654-29.946-9.882-15.895-5.135-31.723-10.445-47.521-15.87-15.655-5.376-31.353-10.619-47.063-15.83-6.308-2.093-12.612-4.197-18.916-6.3l-4.793-1.598-22.158-7.386-15.74-5.247q-10.804-3.604-21.613-7.195-4.793-1.591-9.584-3.185l-4.501-1.494q-6.251-2.069-12.487-4.18-2.21-.744-4.424-1.478a1037 1037 0 0 1-6.938-2.339l-2.134-.7c-4.747-1.635-9.287-3.516-11.628-8.198a76 76 0 0 1-.305-4.44l-.122-2.813-.116-3.085-.126-3.237c-.474-13.003-.56-26.009-.647-39.019l-.063-7.968q-.074-9.306-.138-18.612-.076-10.623-.16-21.245-.169-21.79-.323-43.581-2.122-.955-4.246-1.906l-2.389-1.073c-3.54-1.528-7.154-2.78-10.803-4.021l-5.214-1.805-2.973-1.026c-6.21-2.15-12.414-4.322-18.615-6.501q-2.232-.783-4.464-1.562c-7.085-2.47-14.156-4.976-21.14-7.723l-2.818-1.105c-3.726-2.037-5.023-4.42-6.463-8.34.337-10.627 10.79-19.21 17.768-26.504 1.733-1.831 3.396-3.715 5.044-5.621 2.57-2.97 5.181-5.898 7.813-8.813 4.79-5.314 9.542-10.652 14.133-16.14 4.387-5.24 8.727-10.365 13.672-15.094 2.932-3.055 5.44-6.455 7.996-9.825L182 563h2l-.219-1.844c-1.773-16.748-3.256-40.651 7.594-54.781 5.136-4.647 9.56-6.093 16.414-5.934 7.646 1.33 14.623 5.58 21.348 9.29 3.043 1.349 4.59 1.677 7.863 1.269 1.834-1.553 1.834-1.553 3.27-3.77l1.74-2.426 1.803-2.616 1.894-2.652a578 578 0 0 0 7.457-10.72c5.493-7.95 12.238-14.485 19.155-21.183A545 545 0 0 0 279 461l4-4c-1.115-3.01-2.235-4.19-4.777-6.258-3.208-2.614-5.705-5.614-8.16-8.93-.43-.568-.858-1.137-1.3-1.723a357 357 0 0 1-9.189-12.792 131 131 0 0 0-3.054-4.281c-5.513-7.626-8.94-16.369-12.52-25.016l-1.48-3.54c-15.166-39.103-10.915-86.5 5.48-124.46 2.645-5.548 5.726-10.804 9-16l2.031-3.262c23.223-35.986 59.51-66.315 101.34-77.48l3.297-.892a251 251 0 0 1 6.45-1.618c6.044-1.49 6.044-1.49 10.003-6.068 2.264-9.477 3.095-19.018 3.538-28.73.204-4.373.695-8.623 1.341-12.95.235-2.783.433-5.565.621-8.352.414-2.892 1.011-5.061 2.379-7.648 6.294-4.675 12.926-5.103 19.77-1.57M405 132l-.196 2.316c-3.446 39.326-3.446 39.326-13.929 49.809-6.478 4.225-13.818 6.197-21.187 8.313-12.876 3.714-24.279 8.58-35.688 15.562l-2.285 1.39c-2.294 1.468-4.502 3.022-6.715 4.61l-1.695 1.187c-9.649 6.807-18.27 14.411-26.618 22.75l-2.73 2.727c-7.389 6.64-7.389 6.64-10.957 15.336h-2a123 123 0 0 0-4.687 7.5l-1.353 2.332c-19.327 33.952-25.064 75.49-14.794 113.356 3.838 12.935 9.17 24.696 16.834 35.812l1.719 2.637c4.795 7.035 10.552 13.085 16.47 19.175C308.17 450.239 308.17 450.239 309 458c-2.051 6.877-6.677 10.769-12.187 15l-4.614 3.688L288 480c-7.449 5.968-13.046 12.802-18.769 20.377-1.612 2.125-3.265 4.217-4.918 6.31-2.473 3.178-4.84 6.418-7.188 9.688-14.003 19.332-14.003 19.332-21.312 21.625-8.639 0-15.473-4.825-22.368-9.61-2.556-1.72-2.556-1.72-6.445-1.39-3.91 10.343-3.094 23.758 1 34 3.77 3.1 8.374 4.185 13 5.5l5.352 1.566 3.11.903c6.499 1.894 12.987 3.82 19.477 5.746l4.877 1.445c10.5 3.109 20.976 6.267 31.363 9.734 5.54 1.82 11.083 3.075 16.821 4.106l2.125-3.332c2.929-4.576 5.897-9.124 8.875-13.668l1.21-1.869a282 282 0 0 1 3.103-4.631l1.738-2.594c2.58-2.522 4.385-2.802 7.949-2.906 2.944 2.224 4.658 3.82 5.695 7.402 1.116 9.513-5.98 18.826-10.695 26.598 4.646 3.252 9.614 4.489 15 6q2.898.858 5.793 1.727a5824 5824 0 0 0 36.894 10.836l1.983.574a16002 16002 0 0 0 16.616 4.812 2067 2067 0 0 1 37.49 11.21c6.609 2.043 13.228 4.04 19.87 5.974 8.003 2.335 15.971 4.783 23.944 7.219l2.73.825a283 283 0 0 1 5.348 1.7l2.586.834 2.264.751c5.815 1.26 10.885.391 16.54-1.185l1.996-.548c2.13-.588 4.257-1.19 6.384-1.792l4.418-1.23q5.53-1.546 11.053-3.115 2.972-.84 5.946-1.673a2218 2218 0 0 0 10.082-2.856l3.028-.854 2.75-.799 2.379-.683c2.106-.654 2.106-.654 3.906-2.727 7.397-30.045 2.198-67.418-8-96l-.694-2.006c-2.773-7.911-6.343-15.224-10.369-22.557l-1.247-2.273c-2.534-4.482-5.28-8.307-8.69-12.164l-1.914-2.23-1.711-1.957-1.727-1.981c-2.236-2.503-2.236-2.503-4.648-4.832h-2l-1-3c-2.874-2.168-5.806-4.17-8.809-6.152-3.705-2.53-6.356-4.599-8.191-8.848.248-3.601.86-6.582 2-10 1.32-.691 2.658-1.352 4-2 17.983-13.937 33.547-30.638 44-51l1.766-3.418c15.422-31.593 16.68-71.71 5.627-104.839A627 627 0 0 0 557 288l-.683-1.99c-4.722-13.71-12.51-28.2-22.317-39.01h-2l-.781-1.734c-1.333-2.477-2.87-4.4-4.719-6.516l-1.844-2.14c-1.51-1.842-1.51-1.842-3.656-1.61v-2a176 176 0 0 0-5.348-4.04 152 152 0 0 1-5.773-4.483c-13.017-10.588-26.654-18.487-42.309-24.602l-2.984-1.182a451 451 0 0 0-5.971-2.308c-5.906-2.329-9.764-4.287-12.49-10.322-.18-2.963.892-5.287 1.875-8.063v-4c-3.355.591-5.128 1.712-7.625 4-3.858 3.505-5.97 4.19-11.25 4.313l-3.18.113C423 182 423 182 420.613 180.633c-2.566-4.188-1.81-8.283-1.55-13.07.355-12.837-2.635-21.982-10.063-32.563l-2-3zm44 40-1 2h2zm268.344 168.129C709.673 351.694 707.173 366.67 704 380c-3.375.125-3.375.125-7 0-2-2-2-2-2.195-5.544q.021-2.284.07-4.57l.023-2.443c.033-3.456.089-6.912.143-10.368.036-2.52.06-5.042.084-7.563l.05-2.356c.038-4.135-.068-7.53-2.175-11.156-2.946-1.362-2.946-1.362-5.437.125-6.28 4.594-10.043 11.32-11.563 18.875-.298 3.297-.325 6.567-.312 9.875l-.05 2.566c-.005 7.693 2.016 13.886 5.362 20.747 3.667 8.055 5.965 17.07 4 25.812-2.25 1.75-2.25 1.75-5 3l-2.625 1.688C675 420 675 420 672 420l-1.32-3.113c-7.03-17.44-7.03-17.44-19.68-30.887l-2.078-1.535c-3.205-2.196-5.41-3.39-9.297-3.965L637 381c-2.241 2.706-2.241 2.706-1.863 5.2l.55 2.488.512 2.449c1.257 4.493 2.986 8.801 4.7 13.136 9.274 23.61 9.274 23.61 4.831 36.375-5.24 11.317-12.995 20.644-22.73 28.352l-3.04 2.438c-18.032 14.29-38.088 22.84-59.96 29.562 1.244 3.213 2.595 6.37 3.988 9.52 9.013 20.44 14.15 40.563 17.887 62.57l.392 2.258c.333 1.943.647 3.89.96 5.836.527 3.125.527 3.125 3.773 4.816 2.274-.29 2.274-.29 4.719-1.16l2.807-.898 2.974-1.005 3.046-1.004c6.716-2.251 13.11-4.782 19.454-7.933q2.241-1.036 4.488-2.062c16.891-7.76 31.646-17.287 45.344-29.961C672 540 672 540 675.062 537.625c4.042-3.612 7.292-7.735 10.644-11.985 1.396-1.77 2.804-3.531 4.212-5.292l2.957-3.723 1.407-1.765c4.705-5.365 4.705-5.365 6.718-11.86h2c8.372-15.12 8.372-15.12 16.25-30.5 5.145-10.417 10.574-20.263 17.823-29.402C755.181 420.088 773.486 387.851 772 358c-3.356-1.685-3.356-1.685-6.992-1.602-9.96 5.166-14.454 13.736-19.545 23.343l-1.229 2.31-1.087 2.083c-2.015 3.277-3.365 4.67-7.147 5.616-3 .25-3 .25-6-.75-3.128-6.255-.145-13.17 1.844-19.32 6.42-19.31 6.42-19.31 4.156-38.68-9.054-1.32-13.243 2.171-18.656 9.129M699.25 539.812c-2.58 2.508-4.924 5.147-7.254 7.887-25.133 28.97-64.755 49.902-102.121 57.364-4.283.901-4.283.901-6.875 3.937-.364 3.43-.364 3.43-.187 7.188l.082 3.855L583 623c3.916 1.045 6.42.888 10.29-.258l3.072-.888 3.263-.979 6.816-1.977 3.392-.989c4.224-1.212 8.472-2.32 12.73-3.409 6.96-1.8 13.856-3.773 20.75-5.812 10.62-3.14 21.299-6.031 32.009-8.847 13.332-3.511 26.558-7.368 39.776-11.284 6-1.763 12.02-3.365 18.094-4.858 3.915-.974 7.8-2.045 11.683-3.136l2.315-.646c4.735-1.325 9.461-2.678 14.185-4.042 5.335-1.539 10.694-2.905 16.102-4.164 2.488-.608 2.488-.608 4.468-1.727 2.72-1.303 5.33-1.656 8.305-2.109l3.266-.508L796 567v-2c-5.08-2.214-10.1-4.12-15.496-5.406-6.801-1.657-13.557-3.464-20.317-5.282a3392 3392 0 0 0-36.72-9.61l-3.666-.94-3.481-.89c-4.07-1.07-8.113-2.23-12.148-3.425-2.286-.648-2.286-.648-4.922.365m120.473 39.532-3.713 1.02-3.947 1.136q-2.03.565-4.061 1.128-4.082 1.133-8.158 2.288a1171 1171 0 0 1-13.1 3.594 1380 1380 0 0 0-23.021 6.435c-4.752 1.347-9.519 2.638-14.285 3.93a1322 1322 0 0 0-21.438 6c-8.326 2.402-16.686 4.658-25.062 6.875a3155 3155 0 0 0-64.774 17.922c-8.687 2.493-17.394 4.91-26.101 7.328l-2.222.618a5146 5146 0 0 1-26.43 7.269c-13.091 3.563-26.164 7.189-39.237 10.813l-12.12 3.359-2.635.73-2.302.638A273 273 0 0 1 521 662c-.46 3.498-.2 4.73 1.941 7.613l2.621 2.7q1.395 1.463 2.79 2.93L531 678a317 317 0 0 1 3.438 3.938c2.885 3.318 5.838 6.573 8.812 9.812l1.417 1.544q3.572 3.89 7.169 7.757c4.397 4.742 8.683 9.52 12.726 14.574 7.641 10.518 7.641 10.518 18.438 16.375 2.059-.422 2.059-.422 4.133-1.262 4.86-1.75 9.768-3.163 14.742-4.55a700 700 0 0 0 23.018-6.933c12.648-4.037 25.377-7.815 38.162-11.396 3.011-.878 5.972-1.856 8.945-2.859a800 800 0 0 1 37.582-11.367c10.87-3.008 21.645-6.301 32.418-9.633 10.592-3.275 21.206-6.469 31.828-9.645 13.725-4.068 13.725-4.068 27.361-8.419 2.936-.978 5.889-1.806 8.874-2.624 6.149-1.738 12.197-3.703 18.25-5.75 6.386-2.155 12.776-4.243 19.25-6.125l2.027-.593a822 822 0 0 1 11.734-3.309L866.75 646l2.565-.682c5.245-1.502 8.18-3.102 11.685-7.318l-1.285-1.25c-4.471-4.402-8.644-8.978-12.715-13.75l-1.284-1.495c-9.344-10.889-9.344-10.889-12.779-15.63-3.266-4.497-7.08-8.495-10.863-12.555C840 591 840 591 839 589h-2l-.75-1.687c-1.945-3.598-3.853-6.546-7.494-8.545-3.532-.984-5.516-.416-9.033.576M193.836 581.8a209 209 0 0 0-14.223 16.082c-3.18 3.881-6.658 7.482-10.113 11.117-5.055 5.324-9.858 10.706-14.426 16.457-2.985 3.66-6.195 7.1-9.422 10.547-1.865 1.82-1.865 1.82-1.652 3.996 5.412 3.332 10.802 5.535 16.813 7.563l2.54.88a298 298 0 0 0 12.784 4.084c2.918.862 5.772 1.78 8.61 2.88 7.227 2.787 14.69 4.951 22.075 7.277 10.247 3.256 10.247 3.256 14.073 4.957 3.501 1.533 7.057 2.588 10.73 3.609 9.09 2.608 18.034 5.587 26.993 8.61 7.04 2.372 14.086 4.725 21.132 7.077l2.367.79a2274 2274 0 0 0 32.136 10.476A1372 1372 0 0 1 335 705a1770 1770 0 0 0 26.695 8.706 2443 2443 0 0 1 19.793 6.396l5.011 1.637q3.72 1.215 7.439 2.44 3.483 1.145 6.968 2.282l2.071.687q1.991.647 4.006 1.214c2.017.638 2.017.638 4.05 1.673 2.665 1.116 4.09 1.415 6.967.965 5.09-3.479 9.179-7.876 13.426-12.316q1.912-1.94 3.834-3.874c3.362-3.399 6.69-6.83 10.011-10.268 3.379-3.483 6.791-6.934 10.2-10.388 4.981-5.06 9.953-10.13 14.894-15.23l1.557-1.599c2.878-2.982 5.517-6.068 8.078-9.325l2-2c-5.427-3.4-10.665-5.333-16.812-7.062l-5.083-1.473-2.559-.731a645 645 0 0 1-7.526-2.226 1645 1645 0 0 0-15.52-4.57 6640 6640 0 0 1-21.887-6.407l-2.18-.642-8.838-2.605a2542 2542 0 0 0-26.22-7.596 670 670 0 0 1-19.574-5.867c-16.519-5.22-33.223-9.91-49.922-14.512-10.695-2.953-21.31-6.034-31.86-9.47-8.842-2.848-17.77-5.373-26.707-7.902-15.484-4.383-30.864-8.962-46.062-14.273-3.353-.99-4.671-1.146-7.414 1.137M793.813 688.5q-2.557.83-5.114 1.656l-2.776.903c-5.252 1.691-10.524 3.317-15.798 4.941l-3.35 1.033c-7.738 2.372-15.504 4.626-23.294 6.819-6.484 1.835-12.903 3.839-19.319 5.898-6.735 2.149-13.522 4.084-20.326 6A521 521 0 0 0 686.5 721a576 576 0 0 1-20 6c-6.578 1.854-13.117 3.788-19.625 5.875-8.753 2.806-17.555 5.427-26.377 8.005-5.899 1.73-11.772 3.513-17.62 5.41l-3.497 1.12q-3.278 1.056-6.541 2.152c-6.913 2.213-15.294 4.73-22.158 1.269-5.01-3.452-8.823-8.185-12.682-12.831a660 660 0 0 0-4.312-5l-1.989-2.312c-1.536-1.923-1.536-1.923-3.699-1.688l-.68-1.613c-1.766-3.193-4.064-5.833-6.445-8.574l-1.567-1.817A515 515 0 0 0 513 689c-1.105 3.316-1.126 5.77-1.127 9.264l-.009 3.984.007 4.386-.006 4.614q-.005 6.297 0 12.592c.003 4.438 0 8.876 0 13.313q-.003 11.252.005 22.505.007 11.41 0 22.817c-.063 51.353-.063 51.353.513 102.7l.046 3.02c.043 2.698.1 5.394.161 8.091l.034 2.334c-.004 4.144-.004 4.144 2.376 7.38a1155 1155 0 0 0 23.125-6.5l3.09-.895c10.78-3.103 10.78-3.103 21.238-7.117 4.35-1.825 8.753-3.057 13.297-4.3 7.204-2.014 14.37-4.11 21.5-6.375l2.269-.72a847 847 0 0 0 11.137-3.648c3.517-1.176 7.046-2.3 10.594-3.383l3.367-1.03a4494 4494 0 0 1 6.578-2A537 537 0 0 0 648 864.624c6.12-2.061 12.283-3.879 18.5-5.625a410 410 0 0 0 21.266-6.594c15.26-5.132 30.756-9.622 46.23-14.06 5.049-1.454 10.05-2.992 15.027-4.678 8.247-2.785 16.639-5.17 24.977-7.668l7.675-2.304q3.071-.918 6.145-1.829l3.305-.992 2.758-.82c4.438-1.502 8.766-3.315 13.117-5.055V686c-4.937 0-8.598.967-13.187 2.5M216 688c-1.937 1.937-1.127 4.86-1.136 7.439l.007 2.812-.006 2.948q-.004 4.863.002 9.727l-.003 6.78q-.001 7.138.006 14.277a9398 9398 0 0 1-.004 18.138q-.005 7.023 0 14.046l-.002 6.674c-.01 10.843.065 21.666.582 32.5l.117 2.53c.175 3.244.405 6.032 1.437 9.129a67 67 0 0 0 6.875 2.813l2.153.779c6.216 2.218 12.505 4.2 18.809 6.15 6.9 2.143 13.704 4.52 20.507 6.953 4.2 1.499 8.42 2.914 12.656 4.305l7.5 2.5 3.656 1.219 55.453 18.484 2.805.935 5.094 1.699q4.907 1.638 9.82 3.26c6.565 2.169 13.086 4.45 19.602 6.76A688 688 0 0 0 397 876a10775 10775 0 0 1 10.875 3.625l30.27 10.09q2.936.98 5.871 1.954 8.232 2.736 16.447 5.52 4.523 1.53 9.049 3.055 2.228.753 4.454 1.512 3.133 1.066 6.268 2.119l3.663 1.242c3.207 1.065 3.207 1.065 7.103.883 1.443-2.886 1.127-5.376 1.13-8.6l.005-2.063q.004-3.41-.002-6.821l.003-4.83q.002-5.11-.006-10.22-.006-6.363.004-12.726c.02-17.004-.115-33.986-.638-50.982-.7-22.905-.61-45.81-.565-68.723q.014-8.672.02-17.344.016-16.845.049-33.691c-3.72 0-4.405.889-7.125 3.313l-2.133 1.863c-1.973 1.806-1.973 1.806-2.742 4.824-2.062 1.188-2.062 1.188-4 2v2l-4 2v2c-.58.254-1.16.509-1.759.77-2.486 1.365-4.116 2.878-6.104 4.898l-2.256 2.275-2.408 2.46-2.503 2.525c-3.533 3.566-7.055 7.144-10.577 10.72a4750 4750 0 0 1-7.733 7.817l-2.402 2.453-2.266 2.285-1.975 2.007c-4.979 4.419-8.622 5.27-15.113 5.08-4.606-.46-8.74-1.765-13.091-3.29-.938-.313-1.875-.626-2.84-.95a908 908 0 0 1-5.947-2.015 931 931 0 0 0-9.05-3.035 3878 3878 0 0 1-23.456-7.852c-8.159-2.75-16.32-5.419-24.582-7.836-10.083-2.96-20.033-6.306-29.994-9.648a3793 3793 0 0 0-39.848-13.107c-8.732-2.823-17.457-5.661-26.15-8.6l-2.136-.72q-4.917-1.659-9.827-3.343l-3.436-1.164-2.974-1.018c-2.77-.89-2.77-.89-6.573-.712"/><path fill="#fcfdfe" d="M476 368a192 192 0 0 1 6.625 5.75l1.543 1.394c3.395 3.175 5.51 5.585 6.168 10.223.09 5.82-.316 9.134-4.336 13.633-12.406 12.696-26.897 21.954-44.958 22.292-22.605.15-38.328-8.303-54.73-23.542-3.007-3.577-4.504-6.156-4.152-10.918.96-5.565 2.807-8.9 6.84-12.832h2v-2a142 142 0 0 1 7.313-5.25l2.206-1.498C427.774 346.964 449.78 348.127 476 368m-62 13q-2.434 1.226-4.875 2.438L406 385c3.523 3.76 7.001 6.486 11.438 9.188l3.308 2.042c8.658 4.709 18.624 5.237 28.203 3.118 7.302-2.671 14.685-7.18 18.051-14.348q-4.34-2.443-8.687-4.875l-2.475-1.395c-16.32-9.118-26.09-6.019-41.838 2.27"/><path fill="#1a7ee5" d="M717 514c1 2 1 2 .063 5.125L716 522l2.45.487c9.013 1.855 17.829 4.16 26.677 6.67 3.966 1.125 7.935 2.236 11.904 3.347l2.363.662a919 919 0 0 0 19.043 5.084 772 772 0 0 1 23.69 6.497 503 503 0 0 0 13.865 3.823l3.01.79q2.855.744 5.717 1.46c8.38 2.199 12.805 5.3 18.281 12.18l2.324 2.309c2.801 2.817 5.38 5.772 7.926 8.816l1.447 1.718a810 810 0 0 1 8.928 10.845c3.572 4.391 7.309 8.593 11.121 12.777 3.13 3.521 6.077 7.181 9.035 10.847 2.816 3.41 5.779 6.67 8.785 9.91C894 622 894 622 894 624l3 1c12.676 13.493 12.676 13.493 13.148 20.063-.22 3.145-.79 5.462-2.695 7.992-3.32 2.633-6.684 3.654-10.703 4.883l-2.437.777A937 937 0 0 1 887 661l-3.863 1.215q-3.81 1.194-7.621 2.375c-6.604 2.053-13.186 4.177-19.77 6.292a4267 4267 0 0 1-19.669 6.253l-2.653.838L827 680q-.036 17.193-.052 34.385-.007 7.992-.023 15.984a10516 10516 0 0 0-.025 21.687c-.002 11.686.098 23.362.397 35.045l.081 3.21q.194 7.584.445 15.167l.156 5.432.097 2.443c.157 6.003-.108 12.049-3.857 16.999-8.099 6.017-19.856 8.133-29.446 10.925-4.85 1.426-9.666 2.947-14.484 4.477-12.048 3.824-24.148 7.478-36.246 11.142-10.801 3.272-21.59 6.575-32.347 9.991-6.8 2.156-13.626 4.22-20.46 6.267a1677 1677 0 0 0-37.112 11.602 1740 1740 0 0 1-29.933 9.423 1450 1450 0 0 0-19.566 6.134c-9.658 3.099-19.358 6.051-29.062 9-11.009 3.344-21.99 6.752-32.933 10.308q-2.89.935-5.786 1.86c-5.808 1.86-11.584 3.768-17.32 5.84l-3.07 1.057q-2.744.943-5.45 1.994c-8.44 2.832-15.865.237-24.004-2.372l-2.2-.704c-4.712-1.529-9.393-3.14-14.068-4.78-4.484-1.57-8.977-3.117-13.47-4.664l-2.816-.97c-9.942-3.416-19.941-6.654-29.946-9.882-15.895-5.135-31.723-10.445-47.521-15.87-17.647-6.06-35.35-11.949-53.06-17.82q-3.068-1.017-6.134-2.037l-3.597-1.193A274 274 0 0 1 303 866c3.258-1.086 3.814-.98 6.913.041l2.394.775 2.607.875 2.742.898c2.993.982 5.98 1.978 8.969 2.973q3.14 1.037 6.28 2.07c14.132 4.666 28.22 9.454 42.293 14.294 13.164 4.528 26.37 8.909 39.615 13.199l2.716.88 2.7.875a4195 4195 0 0 1 32.566 10.678q2.251.75 4.504 1.496c7.49 2.483 14.952 5.013 22.361 7.727l3.588 1.3q3.241 1.181 6.463 2.418l2.89 1.052 2.448.927c8.1 1.433 15.86-1.107 23.482-3.662l3.04-.989q3.255-1.062 6.51-2.136c5.956-1.966 11.925-3.896 17.892-5.832l3.766-1.224c13.03-4.228 26.11-8.284 39.198-12.322 15.564-4.808 31.121-9.634 46.657-14.532l2.134-.673 8.64-2.724a9814 9814 0 0 1 78.683-24.465l9.476-2.906c14.055-4.31 28.113-8.612 42.192-12.843a5562 5562 0 0 0 15.543-4.703q3.573-1.08 7.151-2.142c3.24-.961 6.472-1.942 9.704-2.927l2.845-.827 2.612-.808 2.241-.671c3.102-1.55 4.938-3.455 7.185-6.092.745-2.964.745-2.964.64-6.22l.046-3.794-.027-4.14q.014-2.187.032-4.376c.028-3.954.026-7.908.018-11.862-.003-4.135.022-8.27.044-12.404.037-7.827.05-15.654.052-23.48.005-8.912.038-17.824.073-26.736.072-18.33.109-36.658.122-54.988q5.653-1.892 11.308-3.782l3.187-1.068c10.35-3.457 20.761-6.7 31.192-9.9l5.413-1.668 2.669-.822 5.16-1.593c3.7-1.142 7.403-2.27 11.124-3.34l3.529-1.03 2.995-.849c2.545-.996 3.8-1.765 5.423-3.948.687-3.983.871-6.438-1.113-9.996-1.86-2.44-3.845-4.714-5.887-7.004q-1.472-1.704-2.937-3.414a1294 1294 0 0 0-6.665-7.688c-4.672-5.35-9.283-10.753-13.9-16.15q-2.296-2.678-4.6-5.35c-4.592-5.334-9.154-10.678-13.586-16.148-3.547-4.372-7.25-8.559-11.07-12.695C845 569 845 569 842.82 566.07l-2.195-2.945-1.898-2.68c-8.075-7.242-22.167-8.866-32.477-11.633q-2.818-.761-5.635-1.524-7.982-2.159-15.966-4.305-10.155-2.736-20.31-5.48c-11.742-3.17-11.742-3.17-23.486-6.334l-13.579-3.657c-5.436-1.465-10.867-2.942-16.274-4.512z"/><path fill="#187ce4" d="M736 329c4.376 5.849 3.637 12.008 3 19-1.04 5.193-2.474 10.245-4 15.313-3.545 11.638-3.545 11.638-4 23.687.983 1.206.983 1.206 2.848 1.098L740 388l-1 2c-3.14.837-5.211 1.277-8.312.188C729 389 729 389 728 387c-.601-6.372.894-11.283 2.844-17.328C734.97 356.57 736.579 344.744 736 331c-5.171-.084-9.074.534-13.187 3.813-7.986 7.795-10.83 18.767-13.813 29.187-.902 2.942-1.826 5.877-2.75 8.813q-.65 2.07-1.297 4.144L704 380c-6.412 1.33-6.412 1.33-8.714.035-2.036-3.222-1.632-6.595-1.544-10.281l.02-2.447c.024-2.582.067-5.163.113-7.745q.053-3.866.091-7.733.025-2.406.07-4.812c.12-5.106.12-5.106-1.036-10.017-2.852-1.296-2.852-1.296-5.062-.25-2.23 1.256-2.23 1.256-3.938 4.25h-2l-.812 2.5C680 347 680 347 678.449 350.598c-1.8 4.797-1.894 9.261-1.824 14.34l-.035 2.552c.035 7.65 2.082 13.874 5.41 20.697 3.648 8.015 6.033 17.119 4 25.813-1.856 2.534-4.165 3.824-6.937 5.25l-2.028 1.078c-2.5.826-3.59.593-6.035-.328a68 68 0 0 1-3.437-7.5q-.901-2.193-1.813-4.383l-.89-2.145c-1.425-3.269-3.18-6.318-5.012-9.37C659 395 659 395 659 393l-3-1-2.187-2.25c-4.233-4.138-8.295-7.525-14.313-8.062L637 382c-.985 3.752-.974 6.08.25 9.75l.871 2.664L639 397l.66 2.086c1.146 3.581 2.394 7.041 3.863 10.508 4.338 10.34 7.006 19.947 3.247 31.035C641.379 452.294 633.067 462.06 623 470l-3.035 2.434C604.85 484.413 580.173 501 560 501l1.504 2.867c11.86 22.935 17.66 45.728 21.797 71.156l.586 3.493.506 3.133L585 584c2.72 1.36 3.754.651 6.621-.258l2.817-.888 3-.979 3.06-.99c6.748-2.222 13.138-4.725 19.502-7.885q2.241-1.036 4.488-2.062c16.847-7.74 31.617-17.223 45.258-29.895 2.254-2.043 2.254-2.043 4.781-4 2.572-2.125 4.517-4.315 6.598-6.918l2.332-2.914 1.237-1.564a858 858 0 0 1 4.193-5.233q1.463-1.83 2.926-3.664l1.38-1.714c3.028-3.828 5.473-7.748 7.807-12.036h2l.773-2.602c1.286-3.563 2.913-6.521 4.852-9.773 2.99-5.1 5.763-10.26 8.375-15.562l2.012-4.051a1284 1284 0 0 0 2.94-5.955c3.896-7.904 8.19-14.82 13.763-21.652C754.161 420.645 772.485 387.81 771 358c-2.352-.816-3.626-1.117-6.035-.363-3.908 2.025-6.53 3.574-8.965 7.363h-2l-.719 1.984c-1.663 3.916-3.696 7.562-5.781 11.266l-1.223 2.219-1.183 2.11-1.073 1.918C743 386 743 386 741 387c4.27-11.396 10.153-24.744 20.973-31.172 3.483-1.423 6.285-1.13 10.027-.828 3.71 5.564 2.447 12.226 1.418 18.61-5.932 26.545-20.4 52.243-37.34 73.307-5.392 6.74-9.19 13.83-12.882 21.604C716.092 483.248 708.7 497.801 699 511l-1.253 1.715c-4.89 6.643-10.071 12.958-15.673 19.02-1.886 2.06-3.667 4.177-5.449 6.327-4.333 4.961-9.439 8.909-14.625 12.938l-2.848 2.254C636.27 570.964 609.166 582.745 581 589l-.078-2.945c-.454-12.261-2.379-24.065-4.922-36.055l-.515-2.461C571.855 530.738 564.766 515.264 557 500c4.395-1.478 8.792-2.944 13.219-4.324C593.786 488.238 613.644 476.757 631 459l2.027-2.035c7.74-8.214 13.487-18.103 13.379-29.59-.835-6.944-3.755-13.365-6.343-19.812q-1.274-3.25-2.538-6.503a579 579 0 0 0-1.582-4.01c-2.253-5.674-3.175-9.902-2.943-16.05 1.613-1.613 3.336-1.248 5.563-1.312 7.556.128 12.216 2.954 17.812 7.875 7.72 8.029 13.478 19.793 16.625 30.437q2.19-.676 4.375-1.375l2.46-.773c2.33-.75 2.33-.75 4.165-2.852.815-7.105-.927-12.102-3.625-18.648-1.327-3.234-2.508-6.478-3.625-9.79-.315-.926-.63-1.853-.953-2.808-3.515-12.147-2.9-25.184 2.203-36.754 2.67-4.534 5.598-8.071 10-11 2.924-.428 4.324-.483 6.75 1.25 2.956 4.139 2.38 9.133 2.348 14.016l-.005 2.404c-.005 2.527-.018 5.053-.03 7.58l-.014 5.148Q697.032 370.7 697 377l5 1c1.579-4.593 3.082-9.19 4.395-13.867 3.7-13.156 7.421-25.347 18.605-34.133 3.93-1.927 6.863-2.677 11-1M405 127c4.203 3.793 6.673 7.546 9.125 12.625l1.047 2.143c5.366 11.274 6.93 21.017 4.754 33.287-.094 2.018-.094 2.018 1.219 3.652 3.31 2.306 6.503 2.115 10.437 2.063 5.672-1.277 9.413-4.821 13.703-8.583C448 170 448 170 451 170c.17 4.435-.047 7.094-2 11-.5 3.5-.5 3.5 0 7 2.7 3.303 5.306 4.798 9.25 6.313l3.227 1.289L465 197c16.485 6.708 32.184 14.656 46 26l1.686 1.367c11.73 9.55 22.14 19.81 30.314 32.633l2.145 3.29c15.256 23.971 22.308 50.911 22.23 79.21l-.002 2.257c-.041 12.442-1.025 24.204-4.373 36.243l-.633 2.338c-7.817 27.99-26.187 54.402-49.363 71.928-6.341 4.548-6.341 4.548-9.692 11.296L503 467l-2-1c.352-5.984 1.638-8.019 6-12a445 445 0 0 1 6.625-5.625C528.853 435.399 541.805 420.914 551 403l1.766-3.418c15.422-31.593 16.68-71.71 5.627-104.839A627 627 0 0 0 556 288l-.683-1.99c-4.227-12.273-10.658-24.525-19.157-34.412C534 249 534 249 534 247h-2a96 96 0 0 1-3.937-4.875c-2.292-3.007-3.899-5.016-7.063-7.125v-2l-1.746-.805c-2.347-1.244-4.247-2.657-6.317-4.32-14.152-11.151-28.498-20.459-45.34-26.969l-2.966-1.166a387 387 0 0 0-5.928-2.267c-6.508-2.553-10.68-4.884-13.605-11.52-.133-2.647.514-4.692 1.34-7.203l.87-2.703L448 174c-2.404 1.352-4.643 2.676-6.691 4.535-5 4.416-8.872 5.138-15.477 5.164-4.06-1.002-5.46-2.243-7.832-5.699-.482-3.526-.225-6.958 0-10.5.393-12.141-1.998-20.788-8.984-30.914C408 135 408 135 407 132h-2l.043 3.934c-.016 16.424-1.477 36.5-13.668 48.691-6.27 4.861-14.19 6.655-21.687 8.813-12.876 3.715-24.279 8.58-35.688 15.562l-2.285 1.39c-2.294 1.468-4.502 3.021-6.715 4.61l-1.71 1.203c-9.4 6.658-17.87 13.989-26.04 22.11l-2.562 2.531c-3.666 3.718-6.94 7.277-9.641 11.761L283 256h-2l-.734 2.04c-1.247 2.915-2.733 5.593-4.337 8.325-6.592 11.243-11.295 22.672-14.679 35.26l-.603 2.24c-3.022 11.877-4.092 23.647-4.084 35.885l-.002 2.167c.085 26.295 6.403 51.274 21.439 73.083l1.719 2.637c4.795 7.035 10.552 13.085 16.47 19.175C309.17 450.239 309.17 450.239 310 458c-2.74 9.671-12.322 15.377-19.945 21.281-7.048 5.542-12.508 11.696-18.055 18.719-1.7 2.09-3.413 4.17-5.125 6.25L263 509c0-4.005 1.93-5.93 4.313-8.937l1.361-1.736c7.111-8.947 14.564-16.971 23.537-24.108a311 311 0 0 0 8.914-7.344l2.758-2.32c2.679-3.233 3.013-5.396 3.117-9.555-2.593-8.562-12.337-16.128-18.398-22.535-25.595-27.616-35.788-62.43-34.918-99.598C255.04 297.397 269.266 262.693 295 238c2.409-2.386 4.794-4.78 7.113-7.254C313.303 219.001 326.78 209.716 341 202l1.89-1.03c10.244-5.462 20.855-8.976 32.025-12.093 7.757-2.22 14.296-4.399 19.456-10.834 5.72-10.686 6.468-22.673 7.59-34.536.552-5.733 1.179-11.045 3.039-16.507m44 45-1 2h2z"/><path fill="#157ae4" d="M407.77 105.43c5.35 3.223 9.723 6.37 13.23 11.57v2h2c5.076 8.613 8.545 17.5 11.75 26.938l.676 1.973c.941 2.83 1.574 5.084 1.574 8.089l2.238-1.348c7.237-4.037 12.614-5.96 20.762-3.652 4.496 2.296 6.339 5.74 8.219 10.273 1.471 5.135 1.617 10.412 1.781 15.727q2.311 1.065 4.625 2.125l3.07 1.41q3.212 1.427 6.485 2.711c14.35 5.69 29.174 14.548 40.82 24.754v2l1.744.768c26.866 14.679 44.927 52.859 53.299 80.841L581 295l.703 2.293c2.148 7.3 3.3 14.64 4.232 22.177.252 2.029.52 4.055.79 6.08 4.908 37.884-6.526 76.652-28.725 107.45-1.94 2.398-3.945 4.698-6 7 0-3.998 1.972-5.846 4.313-8.875 14.15-19.18 23.093-41.6 26.687-65.125l.555-3.434c5.258-43.89-6.323-89.638-33.555-124.566-22.32-28.228-49.94-45.75-83-59l.105-2.562c.165-6.9.143-12.278-3.105-18.438-3.97-3.776-6.943-5.444-12.492-5.434-5.26.91-9.895 3.85-14.508 6.434a417 417 0 0 1-4.797-13.207c-5.321-15.391-10.733-28.952-25.16-38.023-2.601-.98-4.768-1.035-7.543-1.02l-2.844-.016c-2.73.273-4.362.785-6.656 2.266-1.673 3.346-1.532 7.133-1.832 10.82l-.482 5.504q-.376 4.317-.73 8.634c-.782 9.474-1.625 18.921-3.655 28.222l-.82 3.796C381 169 381 169 377.645 170.844c-6.002 1.904-6.002 1.904-8.253 2.48l-2.507.666-2.634.697C343.438 180.455 324.024 189.625 307 203l-2.695 2.113C284.64 220.884 268.233 238.903 256 261l-1.07 1.934c-20.088 36.855-23.816 82.99-12.243 123.128 4.292 13.93 10.074 26.765 18.164 38.902C264 429.716 264 429.716 264 433a511 511 0 0 1-6-8l-1.453-1.902C251.03 415.444 247.589 406.669 244 398l-1.48-3.54c-15.166-39.103-10.915-86.5 5.48-124.46 2.645-5.548 5.726-10.804 9-16l2.031-3.262c23.223-35.986 59.51-66.315 101.34-77.48l3.297-.892a251 251 0 0 1 6.45-1.618c6.044-1.49 6.044-1.49 10.003-6.068 2.264-9.477 3.095-19.018 3.538-28.73.204-4.373.695-8.623 1.341-12.95.235-2.783.433-5.565.621-8.352.414-2.892 1.011-5.061 2.379-7.648 6.294-4.675 12.926-5.103 19.77-1.57M492 684a14358 14358 0 0 1 .536 40.053c.5 41.211.55 82.42.526 123.635v2.308Q493.044 879.498 493 909l-5.211-1.41-2.931-.794c-4.062-1.132-8.067-2.414-12.073-3.73l-2.545-.828q-4.09-1.335-8.178-2.676l-5.807-1.897a6866 6866 0 0 1-45.635-15.118c-6.805-2.277-13.615-4.542-20.425-6.805l-10.451-3.476-6.633-2.204a4528 4528 0 0 1-40.78-13.764 5496 5496 0 0 0-47.882-16.157l-2.964-.986q-13.49-4.483-26.983-8.956-7.513-2.49-15.023-4.989-2.82-.937-5.642-1.87-3.887-1.288-7.772-2.581l-2.311-.762c-3.39-1.132-6.584-2.353-9.754-3.997q-.198-20.305-.391-40.61l-.182-18.864a58725 58725 0 0 1-.242-25.173A3931 3931 0 0 1 213 685l5.284 1.433 2.973.806c3.055.847 6.063 1.791 9.067 2.804l3.174 1.064 3.19 1.08 3.318 1.116q3.999 1.344 7.994 2.697c-3.676 1.339-5.873.635-9.5-.652l-3.187-1.104-3.313-1.182q-3.247-1.146-6.5-2.277l-2.906-1.035c-2.784-.935-2.784-.935-6.594-.75a40539 40539 0 0 0-.052 39.097q-.007 9.081-.023 18.162-.016 8.792-.02 17.584-.003 3.325-.01 6.65A811 811 0 0 0 217 815l2.249.604 2.971.802 2.937.791c3.888 1.098 7.674 2.42 11.468 3.803l4.438 1.59 2.085.75c3.597 1.283 7.224 2.469 10.852 3.66a11982 11982 0 0 1 11.438 3.813l18.087 6.029 1.975.658 59.11 19.703 2.804.935 5.094 1.699q4.907 1.638 9.82 3.26c6.565 2.169 13.086 4.45 19.602 6.76A688 688 0 0 0 397 875a10775 10775 0 0 1 10.875 3.625l30.27 10.09 5.871 1.956q8.226 2.74 16.447 5.492 4.524 1.514 9.049 3.026l4.454 1.492q3.135 1.05 6.268 2.096l3.663 1.227A100 100 0 0 0 491 906q.036-14.27.052-28.54.007-6.635.023-13.268c.047-18.178-.012-36.334-.575-54.505-.705-22.881-.615-45.762-.569-68.652q.014-8.672.02-17.344.016-16.845.049-33.691c-3.913 2.501-6.78 4.758-9.652 8.426-1.945 2.271-4.19 4.1-6.504 5.984-2.406 2.075-4.609 4.336-6.844 6.59l-1.88 1.895-4.352 4.388a8711 8711 0 0 1-10.106 10.165 3775 3775 0 0 0-5.324 5.365 3658 3658 0 0 1-7.713 7.757l-2.393 2.425-2.255 2.255-1.967 1.98c-4.99 4.393-8.62 5.25-15.106 5.06-4.606-.46-8.74-1.764-13.091-3.29l-2.812-.94a920 920 0 0 1-5.918-2.007 896 896 0 0 0-9.563-3.194C367.4 737.217 367.4 737.217 359 734c3.514-1.171 4.45-.776 7.895.34l3.015.96 3.258 1.067 3.36 1.073a2914 2914 0 0 1 10.66 3.435q5.3 1.715 10.606 3.413 3.304 1.056 6.6 2.134c10.203 3.726 10.203 3.726 20.43 1.964 4.27-2.249 7.417-5.091 10.76-8.532l1.83-1.834c1.975-1.982 3.935-3.977 5.895-5.973q2.063-2.078 4.128-4.153a3827 3827 0 0 0 10.795-10.91c5.771-5.846 11.561-11.674 17.35-17.504q3.032-3.061 6.057-6.13l3.683-3.722 1.708-1.738c3.857-3.89 3.857-3.89 4.97-3.89"/><path fill="#187ce4" d="M504 469c27.406 14.645 43.888 42.5 52.98 71.543L558 544l.863 2.863c4.444 16.11 5.626 32.743 5.473 49.379-.024 2.785-.02 5.57-.014 8.356a3075 3075 0 0 1-.021 5.465l.003 2.447c-.084 6.94-1.135 13.657-2.304 20.49a4703 4703 0 0 1-23.394 6.701 2039 2039 0 0 0-10.865 3.111q-5.246 1.518-10.504 2.996-1.996.565-3.988 1.15c-13.338 3.9-21.297 2.286-34.366-1.794l-3.934-1.204q-3.149-.96-6.296-1.926c-7.663-2.352-15.346-4.634-23.03-6.912q-3.698-1.095-7.393-2.193-7.677-2.28-15.355-4.554l-2.659-.788c-28.039-8.314-56.099-16.549-84.223-24.573A1172 1172 0 0 1 319 598c1.097-3.093 2.453-5.864 4.129-8.672l1.197-2.015a332 332 0 0 1 2.485-4.079c2.873-4.89 4.45-9.49 4.189-15.234-1.35-3.168-1.35-3.168-4-5-3.168-.418-3.168-.418-6 0l-.773 1.65c-2.346 4.495-5.294 8.636-8.104 12.85-1.124 1.69-2.24 3.383-3.357 5.076l-2.141 3.217-1.96 2.954C303 591 303 591 301 592c-2.136-.427-2.136-.427-4.902-1.238l-3.304-.961-3.731-1.114-3.933-1.158c-5.049-1.492-10.09-3.01-15.13-4.529l-3.463-1.043a11910 11910 0 0 1-25.697-7.779l-6.086-1.846a6307 6307 0 0 1-11.547-3.516l-3.55-1.075-3.279-1.004-2.866-.874c-2.324-.798-4.407-1.594-6.512-2.863-1.012-2.39-1.012-2.39-1.687-5.25l-.7-2.828c-2.275-10.838-2.335-21.155.387-31.922 3.215.645 5.63 1.798 8.441 3.469l2.518 1.48 2.603 1.551q2.563 1.52 5.13 3.031l2.287 1.362c4.079 2.234 7.426 2.574 12.021 2.107 4.488-3.052 7.648-6.761 11-11 0 4.925-3.66 7.633-7 11-3.12 2.574-4.256 3.028-8.312 2.875-7.882-1.87-13.532-4.867-20.172-9.45-2.614-1.754-2.614-1.754-6.516-1.425-2.282 9.884-2.611 23.815 2 33 2.771 1.358 5.065 2.189 8 3q2.691.86 5.379 1.727 3.09.953 6.184 1.898l3.388 1.04c9.654 2.947 19.348 5.747 29.05 8.535 9.214 2.652 18.347 5.468 27.417 8.581 4.493 1.529 9.02 2.912 13.582 4.219l.707-2.047c1.618-3.696 3.72-6.873 5.98-10.203l1.355-1.999q1.97-2.882 3.958-5.751l2.004-2.945c2.52-3.507 4.124-5.671 8.121-7.43C327 560 327 560 329.75 562.063c2.826 3.689 4.596 6.262 3.977 11.05-2.015 7.995-6.491 14.905-10.727 21.887 5.236 2.572 10.257 4.42 15.914 5.863 7.693 1.999 15.295 4.258 22.899 6.574 8.166 2.473 16.33 4.938 24.562 7.188 16.56 4.53 32.998 9.457 49.398 14.532 6.61 2.045 13.23 4.042 19.873 5.976 8.003 2.335 15.971 4.783 23.944 7.219l2.73.825a283 283 0 0 1 5.348 1.7l2.586.834 2.264.751c5.815 1.26 10.885.391 16.54-1.185l1.996-.548c2.13-.588 4.257-1.19 6.384-1.792q2.207-.615 4.416-1.228c4.386-1.222 8.766-2.464 13.146-3.709l3.872-1.097Q543.939 635.462 549 634l3.052-.88 5.155-1.507C559 631.147 559 631.147 560 630c6.648-30.715 2.433-66.759-8-96l-.694-2.006c-2.773-7.911-6.343-15.224-10.369-22.557l-1.247-2.273c-1.942-3.436-3.922-6.57-6.499-9.566C531 495 531 495 531 493l-3-1q-2.04-2.444-4.066-4.898c-4.982-5.415-11.077-9.875-17.121-14.04L504 471z"/><path fill="#197de5" d="M511 684c5.637 5.637 5.637 5.637 8.086 8.27l1.622 1.742q3.39 3.66 6.765 7.329 1.96 2.127 3.93 4.245l1.91 2.101 1.613 1.762C536 711 536 711 536 714c-5.585-5.471-10.936-11.044-16-17l-3.437-4-2.563-3c-1.39 2.778-1.126 5.033-1.127 8.144l-.009 3.98.007 4.396-.006 4.614q-.005 6.303 0 12.604c.003 4.441 0 8.881 0 13.322q-.004 11.261.005 22.523.007 11.419 0 22.837c-.074 51.414-.074 51.414.575 102.822l.06 3.032q.082 4.056.183 8.112l.05 2.349c-.198 3.423-.198 3.423 1.262 6.265a1155 1155 0 0 0 23.125-6.5l3.09-.895c10.78-3.103 10.78-3.103 21.238-7.117 4.35-1.825 8.753-3.057 13.297-4.3 7.204-2.014 14.37-4.11 21.5-6.375l2.269-.72a847 847 0 0 0 11.137-3.648c3.517-1.176 7.046-2.3 10.594-3.383l3.367-1.03a4494 4494 0 0 1 6.578-2A537 537 0 0 0 648 863.624c6.12-2.061 12.283-3.879 18.5-5.625a410 410 0 0 0 21.266-6.594c15.26-5.132 30.756-9.622 46.23-14.06 5.049-1.454 10.05-2.992 15.027-4.678 9.106-3.076 18.38-5.692 27.587-8.45 12.58-3.758 12.58-3.758 25.079-7.778l2.448-.817L806 815l-.006-1.978q-.066-23.798-.098-47.595-.014-11.508-.047-23.016-.03-10.027-.037-20.056-.003-5.311-.023-10.624c-.017-3.948-.017-7.897-.016-11.846l-.022-3.577.008-3.246-.005-2.832C806 688 806 688 808 686v131c-24.51 8.17-24.51 8.17-35.087 11.425l-2.417.744-2.496.769-5.345 1.651c-16.074 4.958-32.184 9.794-48.293 14.635-14.289 4.298-28.536 8.687-42.716 13.331-9.012 2.945-18.066 5.72-27.146 8.445a1423 1423 0 0 0-31.625 9.875c-13.072 4.256-26.194 8.333-39.34 12.356a4832 4832 0 0 0-27.953 8.644l-3.138.98q-6.147 1.92-12.291 3.848-4.242 1.331-8.485 2.656l-2.576.813C513.227 909 513.227 909 511 909z"/><path fill="#187ce4" d="M265 433c4.163 4.1 8.152 8.342 12.125 12.625l3.695 3.977c.54.58 1.078 1.161 1.634 1.76a73 73 0 0 0 3.245 3.225C287 456 287 456 287 458c-1.268 1.075-2.595 2.082-3.937 3.063-14.32 11.28-25.475 24.45-35.498 39.598-2.359 3.525-4.832 6.964-7.315 10.401-2.124 2.955-4.231 5.91-6.25 8.938-4.615-1.319-8.099-3.214-12-6l2-1c1.673.65 3.339 1.32 5 2 1.992.376 3.992.72 6 1v-2l-2.14-.32c-3.212-.764-5.698-2.007-8.61-3.555-7.742-3.947-14.448-6.99-23.25-6.125-3.674 1.456-6.537 2.906-9 6a105 105 0 0 0-2.625 7.75l-.656 2.094c-2.287 7.508-2.881 14.721-2.844 22.531l-.012 2.422c.007 4.1.221 8.001.825 12.058.462 3.84.462 3.84-.805 6.422l-1.758 1.66-1.969 1.973L180 569a508 508 0 0 0-4.375 4.875c-2.287 2.54-4.578 5.074-6.883 7.598-3.92 4.31-7.71 8.677-11.367 13.215-2.505 3.098-5.009 6.045-7.875 8.812-2.785 2.69-5.205 5.54-7.625 8.563-3.114 3.887-6.35 7.545-9.79 11.145-9.977 9.667-9.977 9.667-15.382 21.92.227 2.471.931 4.37 2.393 6.376 2.852 2.24 6.11 3.252 9.498 4.43l2.359.842c2.513.895 5.03 1.778 7.547 2.662q2.354.837 4.707 1.677c17.209 6.119 34.51 11.978 51.793 17.885l.023 2.232q.276 26.892.604 53.783c.105 8.67.205 17.34.292 26.009q.114 11.336.26 22.67c.052 4.002.1 8.002.133 12.003q.05 5.651.136 11.303.028 2.07.04 4.143c.011 1.89.043 3.78.075 5.669l.037 3.2c.476 3.553 1.515 5.949 3.4 8.988 2.647 1.315 4.865 2.202 7.656 3.031l2.293.744q2.363.765 4.735 1.5c2.82.882 5.616 1.824 8.415 2.77 2.739.925 5.484 1.83 8.23 2.737 16.411 5.425 32.776 10.984 49.128 16.585l7.192 2.465A1617 1617 0 0 0 303 864c-4.241 1.29-6.652.381-10.86-1.07l-2.074-.705c-2.275-.774-4.545-1.562-6.816-2.35q-3.64-1.243-7.282-2.479-2.548-.865-5.095-1.735c-8.695-2.959-17.434-5.773-26.178-8.583-11.668-3.758-23.335-7.524-34.882-11.64l-2.588-.904c-4.87-1.777-9.775-3.634-12.225-8.534a76 76 0 0 1-.305-4.44l-.122-2.813-.116-3.085-.126-3.237c-.474-13.003-.56-26.009-.647-39.019l-.063-7.968q-.074-9.306-.138-18.612-.076-10.623-.16-21.245-.169-21.79-.323-43.581-2.122-.955-4.246-1.906l-2.389-1.073c-3.54-1.528-7.154-2.78-10.803-4.021l-5.214-1.805-2.973-1.026c-6.21-2.15-12.414-4.322-18.615-6.501q-2.232-.783-4.464-1.562c-7.085-2.47-14.156-4.976-21.14-7.723l-2.818-1.105c-3.726-2.037-5.023-4.42-6.463-8.34.337-10.627 10.79-19.21 17.768-26.504 1.733-1.831 3.396-3.715 5.044-5.621 2.57-2.97 5.181-5.898 7.813-8.813 4.79-5.314 9.542-10.652 14.133-16.14 4.387-5.24 8.727-10.365 13.672-15.094 2.932-3.055 5.44-6.455 7.996-9.825L182 563h2l-.219-1.844c-1.773-16.748-3.256-40.651 7.594-54.781 5.136-4.647 9.56-6.093 16.414-5.934 7.646 1.33 14.623 5.58 21.348 9.29 3.043 1.349 4.59 1.677 7.863 1.269 1.834-1.553 1.834-1.553 3.27-3.77l1.74-2.426 1.803-2.616 1.894-2.652a578 578 0 0 0 7.457-10.72c5.493-7.95 12.238-14.485 19.155-21.183A545 545 0 0 0 279 461l4-4c-1.11-2.995-2.219-4.177-4.75-6.227-3.418-2.782-5.99-5.947-8.625-9.46l-1.363-1.76C265 435.265 265 435.265 265 433"/><path fill="#fbfdfe" d="M361.668 321.176c4.928 3.111 7.992 6.17 10.02 11.699 1.105 7.515-.342 12.919-4.688 19.125-2.292 1.88-4.24 2.802-7 4l-2 1c-6.47.568-11.504-.399-17-4-4.653-4.863-6.437-9.844-6.34-16.453.713-5.344 3.056-10.184 6.809-14.067 5.735-3.978 13.964-4.052 20.199-1.304"/><path fill="#fcfdfe" d="M511 320c5.668 2.112 9.108 5.326 11.625 10.813 2.094 6.397 1.708 11.955-1.25 18-3.588 4.815-7.419 7.024-13.312 8.125-5.917.47-10.414-1.546-14.875-5.313-4.09-4.907-6.352-9.081-6.188-15.625 1.005-6.307 3.359-10.02 8.379-13.906 4.758-3.21 10.081-2.78 15.621-2.094"/><path fill="#167be4" d="M743.5 311.188c7.456 5.405 12.156 11.737 13.813 20.812.246 1.664.481 3.33.687 5l1.578-.48c7.324-1.572 16.17-1.895 22.742 2.082 5.475 4.558 9.135 10.4 9.915 17.556.744 13.081-.808 24.553-5.235 36.842l-.86 2.417c-8.383 23.088-20.59 44.218-35.532 63.677-6.712 8.763-11.632 17.525-16.155 27.578-2.548 5.644-5.416 11.086-8.39 16.515l-1.398 2.594-1.317 2.387-1.156 2.102C721 512 721 512 718 514a93 93 0 0 1 4.469-9.852l1.465-2.8 1.566-2.973 3.281-6.23 1.653-3.139a505 505 0 0 0 4.16-8.182c4.289-8.538 8.91-16.23 14.796-23.763 6.18-7.945 11.385-16.47 16.61-25.061l1.14-1.833c12.904-20.78 27.945-51.803 22.212-77.019-2.073-5.863-5.063-9.822-10.352-13.148-7.44-2.48-16.704-1.78-24 1l-.078-2.09c-.528-8.747-2.55-16.538-8.922-22.91-6.573-3.863-12.548-3.975-20-3-7.485 2.58-13.938 6.972-20 12l-1.687-2.375c-2.95-3.349-5.469-4.356-9.856-4.996-8.906-.224-15.54 2.432-22.144 8.433C661.853 337.485 657.548 351.804 657 367l-2.203-.875c-9.146-3.377-18.763-5.32-28.047-1.238-4.643 2.953-8.472 7.745-9.75 13.113-1.408 14.078 4.686 28.74 9.445 41.713 1.936 5.476 3.249 9.51 1.555 15.287-5.9 12.153-18.694 23.044-30 30l-2.758 1.762C582.955 474.314 568.96 479.446 555 483l-2.262.588c-5.673 1.117-5.673 1.117-8.463-.73-1.634-1.719-3.018-3.493-4.4-5.42a511 511 0 0 0-2.883-3.754l-1.434-1.86c-2.539-2.973-5.503-5.4-8.558-7.824l2-4c2 1 2 1 2.813 3.25 1.491 3.454 3.46 5.142 6.187 7.75.59.764 1.18 1.529 1.79 2.316 3.425 4.507 3.425 4.507 8.128 7.438 21.255 1.274 47.296-15.004 62.582-28.379 11.095-10.064 11.095-10.064 16.5-23.375a72 72 0 0 0-2.562-7c-2.602-6.534-4.798-13.118-6.75-19.875l-.77-2.59c-2.779-9.773-4.636-19.653.39-28.957 4.345-6.376 9.166-9.127 16.692-10.578 7.33-.735 13.5-.628 20 3 1.768-1.768 1.347-4.597 1.563-7 1.838-13.422 8.244-26.535 18.957-34.988 7.597-5.55 13.077-6.77 22.48-6.012 4.126 1.078 7.082 2.9 10 6l2.598-1.898 3.465-2.477 1.7-1.25a31.94 31.94 0 0 1 28.737-4.187"/><path fill="#157be4" d="M700 537q17.603 4.605 35.205 9.219l14.282 3.742q9.713 2.544 19.424 5.094l7.667 2.01q5.423 1.42 10.844 2.845l3.28.857c4.823 1.27 9.594 2.566 14.298 4.233-3.048 1.651-6.01 2.66-9.352 3.565l-3.277.896-3.566.96-5.68 1.549q-3.032.824-6.065 1.646c-6.366 1.724-12.73 3.462-19.093 5.198l-4.322 1.18a5211 5211 0 0 0-40.77 11.318 5555 5555 0 0 1-49.292 13.616 3824 3824 0 0 0-41.646 11.576C607.99 620.459 594.01 624.269 580 628l1-22 4.652-1.32C631.1 591.687 668.136 572.187 700 537m-.75 2.813c-2.58 2.507-4.924 5.146-7.254 7.886-25.133 28.97-64.755 49.902-102.121 57.364-4.283.901-4.283.901-6.875 3.937-.364 3.43-.364 3.43-.187 7.188l.082 3.855L583 623c3.916 1.045 6.42.888 10.29-.258l3.072-.888 3.263-.979 6.816-1.977 3.392-.989c4.224-1.212 8.472-2.32 12.73-3.409 6.96-1.8 13.856-3.773 20.75-5.812 10.62-3.14 21.299-6.031 32.009-8.847 13.332-3.511 26.558-7.368 39.776-11.284 6-1.763 12.02-3.365 18.094-4.858 3.915-.974 7.8-2.045 11.683-3.136l2.315-.646c4.735-1.325 9.461-2.678 14.185-4.042 5.335-1.539 10.694-2.905 16.102-4.164 2.488-.608 2.488-.608 4.468-1.727 2.72-1.303 5.33-1.656 8.305-2.109l3.266-.508L796 567v-2c-5.08-2.214-10.1-4.12-15.496-5.406-6.801-1.657-13.557-3.464-20.317-5.282a3392 3392 0 0 0-36.72-9.61l-3.666-.94-3.481-.89c-4.07-1.07-8.113-2.23-12.148-3.425-2.286-.648-2.286-.648-4.922.365"/><path fill="#197de5" d="M185 590c0 4.35-2.696 6.223-5.562 9.188l-3.34 3.535-1.633 1.719a178 178 0 0 0-5.09 5.683c-2.749 3.186-5.585 6.281-8.437 9.375-3.553 3.877-6.798 7.808-9.782 12.137L150 633h-2l-.875 1.813C146 637 146 637 144 640c3.642 1.95 7.305 3.018 11.27 4.121 2.73.879 2.73.879 6.058 2.32 3.823 1.623 7.637 2.872 11.61 4.059 4.635 1.394 9.16 2.91 13.685 4.639 6.651 2.41 13.452 4.42 20.2 6.545 10.246 3.256 10.246 3.256 14.072 4.957 3.501 1.533 7.057 2.588 10.73 3.609 9.09 2.608 18.034 5.587 26.993 8.61 7.04 2.372 14.086 4.725 21.132 7.077l2.367.79a2274 2274 0 0 0 32.136 10.476A1372 1372 0 0 1 335 704a1770 1770 0 0 0 26.695 8.706 2443 2443 0 0 1 19.793 6.396l5.011 1.637q3.72 1.215 7.439 2.44 3.483 1.145 6.968 2.282l2.071.687q1.991.647 4.005 1.215c2.018.637 2.018.637 4.06 1.663 2.653 1.099 4.097 1.406 6.958.974 5.004-3.396 9.008-7.706 13.172-12.062q1.876-1.904 3.76-3.8c3.297-3.334 6.56-6.7 9.818-10.074 3.308-3.413 6.65-6.793 9.988-10.177 4.885-4.965 9.76-9.938 14.605-14.942l1.518-1.559c3.22-3.338 6.208-6.796 9.139-10.386l2 1c-9.878 11.149-20.209 21.851-30.63 32.49a915 915 0 0 0-9.46 9.787 665 665 0 0 1-9.252 9.527 225 225 0 0 0-3.479 3.633c-8.866 9.444-8.866 9.444-14.246 9.72-3.178-.753-5.949-1.837-8.933-3.157a298 298 0 0 0-5.618-1.739q-2.916-.959-5.827-1.929l-3.236-1.066q-3.437-1.133-6.871-2.27A7954 7954 0 0 0 366 716.918l-1.9-.625c-13.053-4.293-26.134-8.494-39.225-12.668l-12.36-3.945-2.98-.952a5492 5492 0 0 1-72.959-23.864 8779 8779 0 0 0-20.421-6.797q-7.685-2.55-15.368-5.104-5.488-1.824-10.978-3.643C173.115 653.79 156.483 648.14 140 642c1.419-2.938 2.875-5.195 5.063-7.625l1.878-2.102L149 630l2.215-2.46q2.302-2.56 4.61-5.114a466 466 0 0 0 5.488-6.239c3.664-4.21 7.464-8.29 11.26-12.383 3.472-3.75 6.88-7.545 10.22-11.413.71-.82 1.44-1.624 2.207-2.391"/><path fill="#177ce4" d="M852 604h2c1.488 1.66 1.488 1.66 3.313 4.063 3.555 4.562 7.255 8.957 11.062 13.312A928 928 0 0 1 885 641c-2.356 2.356-3.853 2.713-7.035 3.637l-3.31.974c-1.227.355-2.454.71-3.717 1.077q-4.149 1.22-8.293 2.449l-2.287.675c-9.073 2.684-18.115 5.466-27.16 8.244a18552 18552 0 0 1-122.971 37.279q-21.283 6.373-42.549 12.808c-7.544 2.283-15.091 4.555-22.638 6.827a5393 5393 0 0 0-19.438 5.896c-5.67 1.73-11.344 3.445-17.019 5.156a1736 1736 0 0 0-7.24 2.208c-3.33 1.022-6.666 2.027-10.003 3.028l-3.007.938-2.763.816-2.396.729c-2.742.327-3.882-.248-6.174-1.741a121 121 0 0 1-5.312-5.625l-1.477-1.64a853 853 0 0 1-9.477-10.75c-3.529-4.039-7.14-8.004-10.734-11.985l-6.715-7.46L532 682l1-2c4.493 4.388 8.804 8.85 12.895 13.613 2.76 3.13 5.624 6.158 8.48 9.2 3.954 4.218 7.759 8.483 11.375 13 7.111 9.81 7.111 9.81 17.25 15.187 2.059-.422 2.059-.422 4.133-1.262 4.86-1.75 9.768-3.163 14.742-4.55a700 700 0 0 0 23.018-6.933c12.648-4.037 25.377-7.815 38.162-11.396 3.011-.878 5.972-1.856 8.945-2.859a800 800 0 0 1 37.582-11.367c10.87-3.008 21.645-6.301 32.418-9.633 10.592-3.275 21.206-6.469 31.828-9.645 13.725-4.068 13.725-4.068 27.361-8.419 2.936-.978 5.889-1.806 8.874-2.624 6.149-1.738 12.197-3.703 18.25-5.75 6.386-2.155 12.776-4.244 19.25-6.125l2.025-.59c3.004-.873 6.01-1.735 9.023-2.577 2.737-.767 5.47-1.55 8.202-2.332l2.59-.708c4.528-1.31 7.576-2.382 10.597-6.23l-1.285-1.25c-4.472-4.403-8.638-8.983-12.715-13.75l-2.781-3.187-2.969-3.438-1.43-1.631c-2.891-3.375-4.996-6.695-6.82-10.744"/><path fill="#1b7ee5" d="M830 577c2.367 2.258 2.367 2.258 4.875 5.125l2.64 2.996L840 588l1.984 2.285A595 595 0 0 1 846 595l-1 2a376 376 0 0 1-3-2.875l-1.687-1.617C839 591 839 591 839 589h-2c-1.543-1.946-2.89-3.99-4.27-6.055-2.15-2.416-3.621-3.058-6.73-3.945-3.058.355-3.058.355-6.277 1.344l-3.713 1.02-3.947 1.136q-2.03.565-4.061 1.128-4.082 1.133-8.158 2.288a1171 1171 0 0 1-13.1 3.594 1380 1380 0 0 0-23.021 6.435c-4.752 1.347-9.519 2.638-14.285 3.93a1322 1322 0 0 0-21.438 6c-8.326 2.402-16.686 4.658-25.062 6.875a3155 3155 0 0 0-64.774 17.922c-8.687 2.493-17.394 4.91-26.101 7.328l-2.222.618a4912 4912 0 0 1-26.43 7.265 3353 3353 0 0 0-23.7 6.547l-9.232 2.577a4357 4357 0 0 0-6.305 1.768c-3.09.87-6.183 1.731-9.276 2.592l-2.843.805-2.636.73-2.302.645C525 662 525 662 521 662c1.301 4.875 3.17 7.723 6.625 11.375l2.477 2.648L532 678l-1 2c-5.244-5.139-10.423-10.25-15-16v-2c47.846-13.4 95.719-26.699 143.605-39.953l25.461-7.05a284955 284955 0 0 1 53.616-14.847 31134 31134 0 0 1 67.877-18.726l2.392-.657 4.357-1.195c3.19-.876 6.372-1.773 9.545-2.71 4.46-1.222 4.46-1.222 7.147.138m-24 106 1 3-3.27.883c-7.938 2.163-15.832 4.415-23.668 6.93-8.822 2.83-17.697 5.465-26.586 8.08-7.97 2.35-15.915 4.77-23.851 7.232a1036 1036 0 0 1-26.146 7.727c-6.483 1.835-12.902 3.839-19.317 5.898-5.856 1.868-11.746 3.584-17.662 5.25-6.578 1.854-13.117 3.788-19.625 5.875-8.753 2.806-17.555 5.427-26.377 8.005-5.899 1.73-11.772 3.513-17.62 5.41l-3.497 1.12q-3.278 1.056-6.541 2.152c-6.88 2.202-15.234 4.698-22.096 1.33-7.687-5.214-13.46-13.366-19.424-20.388-1.178-1.342-2.432-2.616-3.695-3.879-3.718-3.718-7.157-7.675-10.625-11.625l1-2c5.189 5.095 10.282 10.204 15.016 15.727 2.65 3.036 5.376 5.999 8.109 8.96l1.525 1.658a296 296 0 0 0 2.96 3.156c1.29 1.392 2.497 2.86 3.695 4.331 3.778 3.04 6.983 3.405 11.695 3.168 5.87-1.257 11.553-3.05 17.277-4.844q2.567-.783 5.136-1.563c4.569-1.39 9.132-2.802 13.693-4.217 4.738-1.466 9.482-2.912 14.226-4.36q11.247-3.435 22.488-6.893a4297 4297 0 0 1 34.72-10.49c4.862-1.45 9.721-2.909 14.581-4.367l2.764-.83C739.294 703.412 772.654 693.231 806 683"/><path fill="#1379e4" d="M476 368a192 192 0 0 1 6.625 5.75l1.543 1.394c3.395 3.175 5.51 5.585 6.168 10.223.09 5.82-.316 9.134-4.336 13.633-12.406 12.696-26.897 21.954-44.958 22.292-22.605.15-38.328-8.303-54.73-23.542-3.007-3.577-4.504-6.156-4.152-10.918.96-5.565 2.807-8.9 6.84-12.832h2v-2a142 142 0 0 1 7.313-5.25l2.206-1.498C427.774 346.964 449.78 348.127 476 368m-76 0-2.738 1.957A105 105 0 0 0 391 375l-1.875 1.633c-3.3 3.284-4.532 5.737-4.75 10.43.056 5.798 3.143 9.474 7.148 13.43C407.683 413.995 423.487 421.39 445 420c12.397-1.611 21.654-6.984 31.375-14.5l1.767-1.365c4.288-3.427 8.369-7.157 10.858-12.135.369-4.423.486-6.985-1.437-11-10.68-12.502-29.922-26.882-46.899-28.273-16.376-.593-27.726 5.922-40.664 15.273"/><path fill="#1b7ee5" d="M717 514c1 2 1 2 .063 5.125L716 522l2.45.487c9.013 1.855 17.829 4.16 26.677 6.67 3.966 1.125 7.935 2.236 11.904 3.347l2.363.662a919 919 0 0 0 19.043 5.084 780 780 0 0 1 23.686 6.494 566 566 0 0 0 13.94 3.861l3.036.803a748 748 0 0 0 5.796 1.5l2.64.697 2.325.599c2.428.903 4.146 2.159 6.14 3.796-2.67 1.335-3.6.71-6.426-.152-10.921-3.32-21.867-6.527-32.875-9.547l-3.75-1.032c-14.232-3.91-28.484-7.747-42.737-11.582l-16.79-4.522-5.767-1.552c-5.564-1.498-11.122-3.005-16.655-4.613z"/><path fill="#187de4" d="m461.625 380.125 1.831 1.02c3.016 1.744 4.574 2.9 6.544 5.855-10.35 10.015-20.031 15.413-34.426 15.191-11.52-.616-19.676-6.775-28.945-13.115-1.649-1.136-1.649-1.136-3.629-2.076v-2a516 516 0 0 1 18.438-9.812l3.496-1.77c13.347-6.172 24.844.084 36.691 6.707M414 381q-2.434 1.226-4.875 2.438L406 385c3.523 3.76 7.001 6.486 11.438 9.188l3.308 2.042c8.658 4.709 18.624 5.237 28.203 3.118 7.302-2.671 14.685-7.18 18.051-14.348q-4.34-2.443-8.687-4.875l-2.475-1.395c-16.32-9.118-26.09-6.019-41.838 2.27"/><path fill="#016ae0" d="M511 684c5.637 5.637 5.637 5.637 8.086 8.27l1.622 1.742q3.39 3.66 6.765 7.329 1.96 2.127 3.93 4.245l1.91 2.101 1.613 1.762C536 711 536 711 536 714c-5.585-5.471-10.936-11.044-16-17l-3.437-4-2.563-3c-1.394 2.788-1.14 5.08-1.158 8.2l-.015 1.949c-.016 2.163-.024 4.327-.032 6.49l-.03 4.641q-.04 6.313-.068 12.626-.035 6.593-.076 13.184-.074 12.49-.138 24.98-.076 14.215-.16 28.432-.17 29.248-.323 58.498h-1z"/><path fill="#0e74e3" d="M896 657c-2.79 1.86-4.848 2.73-8 3.75l-3.3 1.07L881 663l-1.888.608a1476 1476 0 0 1-25.604 7.966l-2.255.682a6580 6580 0 0 1-11.306 3.405l-4.2 1.265c-1.252.375-2.503.75-3.792 1.138-2.848.818-2.848.818-4.955 1.936l-1 95h-1v-97c14.47-4.823 28.916-9.637 43.48-14.158 2.777-.863 5.55-1.738 8.323-2.612l5.365-1.668 2.478-.785c3.89-1.195 7.232-2.116 11.354-1.777"/><path fill="#2786e6" d="M511 849h1c1.043 6.06 1.199 12.008 1.281 18.148l.056 3.192q.115 6.73.215 13.461.08 4.924.167 9.847l.04 3.1.052 2.843.038 2.514c-.054 1.906-.054 1.906 1.151 2.895a1155 1155 0 0 0 23.125-6.5l3.09-.895c10.414-2.974 10.414-2.974 20.535-6.793 2.541-.917 4.568-.965 7.25-.812-2.404 2.404-4.172 2.859-7.406 3.883l-3.409 1.088-3.685 1.154-3.76 1.191q-4.885 1.544-9.777 3.071l-5.8 1.816q-5.391 1.687-10.788 3.36l-3.373 1.049-3.104.954-2.729.842C513 909 513 909 511 909z"/><path fill="#137ae4" d="M361.668 321.176c4.928 3.111 7.992 6.17 10.02 11.699 1.105 7.515-.342 12.919-4.688 19.125-2.292 1.88-4.24 2.802-7 4l-2 1c-6.47.568-11.504-.399-17-4-4.653-4.863-6.437-9.844-6.34-16.453.713-5.344 3.056-10.184 6.809-14.067 5.735-3.978 13.964-4.052 20.199-1.304M339 328c-2.965 4.632-2.486 9.694-2 15 1.763 5.29 4.612 7.8 9 11 5.167 1.722 10.106 1.656 15.25-.125 4.18-2.85 7.119-5.98 8.75-10.875.538-6.352-.359-10.702-4-16-5.015-4.77-9.407-5.463-16.133-5.418-4.624.674-7.753 3.015-10.867 6.418"/><path fill="#187ce4" d="M586 335c2 2 2 2 2.252 4.13C587.9 375.392 576.42 412.646 552 440c0-3.998 1.972-5.846 4.313-8.875 19.126-25.927 27.191-55.808 28.292-87.607l.114-2.89.092-2.622C585 336 585 336 586 335"/><path fill="#147ae4" d="M511 320c5.668 2.112 9.108 5.326 11.625 10.813 2.094 6.397 1.708 11.955-1.25 18-3.588 4.815-7.419 7.024-13.312 8.125-5.917.47-10.414-1.546-14.875-5.313-4.09-4.907-6.352-9.081-6.188-15.625 1.005-6.307 3.359-10.02 8.379-13.906 4.758-3.21 10.081-2.78 15.621-2.094m-19.312 7.508c-3.07 4.582-3.578 9.108-2.688 14.492 1.387 4.83 3.58 8.082 7.688 11 4.423 2.438 8.363 2.828 13.312 2 5.675-1.964 9.314-5.628 12-11 .557-5.957.522-10.952-3-16-4.186-4.108-7.306-6.158-13.187-6.312-6.078.079-9.977 1.053-14.125 5.82"/><path fill="#036ce1" d="M213 685c5.819 1.557 11.614 3.119 17.324 5.043l3.174 1.064 3.19 1.08 3.318 1.116q3.999 1.344 7.994 2.697c-3.676 1.339-5.873.635-9.5-.652l-3.187-1.104-3.313-1.182q-3.247-1.146-6.5-2.277l-2.906-1.035c-2.784-.935-2.784-.935-6.594-.75l-1 100h-1q-.198-15.024-.391-30.049l-.182-13.96c-.264-19.998-.52-39.991-.427-59.991"/><path fill="#1c7fe5" d="m643 583 2 2c-17.307 9.204-35.93 17.11-55.187 21.125-3.811.52-3.811.52-5.813 2.875a94 94 0 0 0-.125 7.625l.027 2.14c.024 1.746.06 3.49.098 5.235h-2c-.663-4.476-1.061-8.761-1.031-13.29l.013-2.685L581 606l1.933-.547C603.98 599.47 623.381 592.736 643 583"/><path fill="#0c75e3" d="m480 667 2 1c-6.998 7.992-14.385 15.517-21.91 23.008l-3.66 3.656q-4.77 4.762-9.544 9.519-4.889 4.875-9.775 9.755Q427.56 723.472 418 733l-10-3v-1l1.721.646c3.072.77 5.137.893 8.279.354 5.044-3.418 9.074-7.77 13.27-12.16q1.873-1.9 3.755-3.795c3.29-3.326 6.544-6.684 9.793-10.05 3.302-3.407 6.637-6.78 9.97-10.157 4.873-4.953 9.737-9.916 14.57-14.909l1.514-1.554c3.216-3.335 6.2-6.79 9.128-10.375"/><path fill="#167be4" d="M425 354c-2.69 1.793-5.2 3.03-8.125 4.375-10.13 5.034-25.744 13.117-30.875 23.625-1.073 4.976-.638 8.674 1.563 13.25 2.897 3.269 6.018 6.042 9.437 8.75-4.352 0-6.006-2.285-9.129-5.121-3-3.013-4.54-5.883-5.871-9.879.509-6.358 2.462-10.575 7-15h2v-2a142 142 0 0 1 7.313-5.25l2.2-1.496c5.641-3.79 11.41-7.205 17.487-10.254l2.11-1.215C422 353 422 353 425 354"/><path fill="#1f81e5" d="m405 104-1 2c-3.32.61-6.642.96-9.996 1.34-3.307.362-3.307.362-5.004 3.66-.377 2.597-.653 5.12-.852 7.73l-.193 2.274c-.201 2.394-.39 4.789-.58 7.183l-.406 4.874Q386.472 139.03 386 145c-4.07-6.104-2.14-15.038-1-22q.34-4.174.621-8.352c.414-2.892 1.011-5.061 2.379-7.648 5.45-4.048 10.571-4.403 17-3"/><path fill="#1a7de5" d="m247 497 2 2-1.054 1.39a4267 4267 0 0 0-4.758 6.298c-.548.72-1.095 1.442-1.659 2.185-2.719 3.61-5.31 7.18-7.529 11.127-4.615-1.319-8.099-3.214-12-6l2-1c1.673.65 3.339 1.32 5 2 1.992.376 3.992.72 6 1v-2l-2.062-.312c-3.567-.835-6.6-2.183-9.938-3.688l1-2 2.563.938c3.97 1.325 3.97 1.325 10.437 2.062z"/><path fill="#1d81e5" d="M213 685c12.375 3.375 12.375 3.375 17.324 5.043l3.174 1.064 3.19 1.08 3.318 1.116q3.999 1.344 7.994 2.697c-3.676 1.339-5.873.635-9.5-.652l-3.187-1.104-3.313-1.182q-3.247-1.146-6.5-2.277l-2.906-1.035c-2.784-.935-2.784-.935-6.594-.75l-2 20h-1z"/><path fill="#147ae4" d="M443 652c7.997 1.36 15.71 3.546 23.462 5.886 2.06.62 4.123 1.229 6.186 1.837q1.973.59 3.946 1.183l3.584 1.073C483 663 483 663 485 665l-1 2-2.187-.883c-9.756-3.875-19.696-7.09-29.79-9.965l-2.71-.777-2.387-.664C445 654 445 654 443 652"/><path fill="#9fcbf5" d="M211 504c5.459.287 8.965 2.671 13.453 5.5 3.406 2.006 6.804 3.252 10.547 4.5v2c-5.273-.445-10.018-1.084-15-3l1-2-3.312-1.25c-3.198-1.353-4.895-2.69-6.688-5.75"/><path fill="#167ae4" d="M511 684c5.68 5.605 11.073 11.468 16.473 17.34q1.96 2.128 3.93 4.246l1.91 2.101 1.613 1.762C536 711 536 711 536 714c-5.585-5.471-10.936-11.044-16-17l-3.437-4-2.563-3-2 2c-1.354-2.709-1.065-5.01-1-8"/><path fill="#0e76e3" d="M695 354h1l1 23 5 1c1.835-1.334 1.835-1.334 3-3l-1 5c-6.442 1.337-6.442 1.337-8.715-.035-1.96-2.997-1.607-5.55-1.535-9.09l.033-2.024c.112-5.003.522-9.899 1.217-14.851"/><path fill="#2988e7" d="M597 602v2l-2.336.586-3.039.789-3.023.773c-2.727.676-2.727.676-4.602 2.852a94 94 0 0 0-.125 7.625l.027 2.14c.024 1.746.06 3.49.098 5.235h-2c-.896-6.048-1.113-11.89-1-18q3.436-1.005 6.875-2l1.973-.578C594.773 602 594.773 602 597 602"/><path fill="#1f81e6" d="m489 686 2 4-2.062.5c-3.652 1.865-5.505 4.278-8.098 7.398-2.252 2.573-4.72 4.713-7.36 6.875-1.616 1.301-1.616 1.301-3.48 3.227 0-3 0-3 1.744-5.085l2.412-2.364 2.598-2.569 2.746-2.67 2.746-2.705q3.367-3.312 6.754-6.607"/><path fill="#137ae4" d="M531 243c5.403 3.602 8.487 8.675 12 14l1.594 2.324 1.406 2.113 1.25 1.872C548 265 548 265 547 268l-1.828-2.887-2.422-3.8-1.2-1.897c-1.841-2.884-3.686-5.584-5.847-8.248C534 249 534 249 534 247h-2z"/><path fill="#2584e6" d="M736 311v1l-2.527.262c-9.577 1.195-15.885 3.941-23.473 9.738.362-2.7.76-3.785 2.82-5.633 7.956-5.15 13.8-6.941 23.18-5.367"/><path fill="#3b8ee7" d="m222 513 13 3v-2l-3-1 5 1-3 6c-4.609-1.317-8.141-3.152-12-6z"/><path fill="#338de8" d="M384 384h1l.297 2.012c1.479 8.732 4.925 12.597 11.703 17.988-3.739 0-4.366-.905-7.062-3.375l-2.098-1.898c-3.83-3.595-3.83-3.595-4.035-6.329l.07-3.023.055-3.04z"/><path fill="#2f8ae7" d="M586 335c2 2 2 2 2.195 4.602l-.07 3.023-.055 3.04L588 348l-3 1q-.04-3.22-.062-6.437l-.036-3.622C585 336 585 336 586 335"/><path fill="#1e80e5" d="m213 527 2.16 1.207c5.196 2.874 10.326 5.587 15.84 7.793v1c-7.43-.169-12.85-4.132-19-8z"/><path fill="#2584e6" d="M685 525h2c-1.296 2.829-2.692 4.97-4.82 7.234l-1.621 1.739-1.684 1.777-1.707 1.824Q675.089 539.792 673 542l-2-2 2.5-1.875c3.887-3.193 6.752-7.113 9.766-11.113z"/><path fill="#2182e6" d="M752 320c4.493 4.697 5.114 11.311 5.125 17.563L757 341h-2l-.148-2.195c-.408-5.267-1.027-9.816-2.852-14.805z"/><path fill="#2485e7" d="M685 407h2c-.606 6.419-.606 6.419-2.187 8.75A41.4 41.4 0 0 1 677 420l-3-1c2.223-1.812 3.84-2.954 6.625-3.75 2.791-1.129 2.791-1.129 3.688-4.875z"/><path fill="#2283e6" d="M489 186c4.921 2.009 9.425 4.293 14 7l-2 2-13-7z"/><path fill="#2182e6" d="M302 694c2.015.34 4.014.772 6 1.25l3.313.766L314 697l1 3a799 799 0 0 1-5.312-1.375l-2.989-.773C304 697 304 697 301 695z"/><path fill="#b7d8f8" d="M224 512c4.219-.196 7.17.198 11 2v2a764 764 0 0 1-4.375-.437l-2.46-.247C226 515 226 515 224 514z"/><path fill="#1d80e5" d="M729 381h1l2 7h8l-1 2c-3.056.815-5.237 1.206-8.312.375C729 389 729 389 728.188 386.563 728 384 728 384 729 381"/><path fill="#1177e3" d="M480 904c7.429 1 7.429 1 11 2l1-2 1 5a671 671 0 0 1-5.375-1.375l-3.023-.773C482 906 482 906 480 904"/><path fill="#2a87e7" d="M405 127c1.5 1.375 1.5 1.375 3 3v2h-3v9c-2.208-3.313-2.197-3.835-1.687-7.562l.3-2.38C404 129 404 129 405 127"/><path fill="#2584e6" d="M185 552h1c.666 3.028 1.145 5.894 1 9-2.437 3.063-2.437 3.063-5 5v-3h2l-.062-3.812c-.047-2.829.145-4.437 1.062-7.188"/><path fill="#2886e6" d="M801 545c2.094.207 2.094.207 4.5.813l2.406.582C810 547 810 547 812 548v2l-13-3z"/><path fill="#0c75e3" d="M582 577c2.398 2.398 2.343 3.333 2.625 6.625l.227 2.477L585 588l-3 1z"/><path fill="#1379e4" d="m207 560 12 5v1c-8.571-.857-8.571-.857-12-3z"/><path fill="#197ee5" d="M555 895c-2.599 1.733-4.138 2.485-7.062 3.25l-2.098.578L544 899l-2-2q2.119-.799 4.25-1.562l2.39-.88c2.551-.603 3.913-.405 6.36.442"/><path fill="#1d80e5" d="m749 833-1 3c-1.848.73-1.848.73-4.062 1.188l-2.223.48L740 838l-1-2c6.625-3 6.625-3 10-3"/><path fill="#2283e6" d="m284 481 3 1-1.496 1.242-1.942 1.633-1.933 1.617c-1.737 1.43-1.737 1.43-2.629 3.508l-3-1z"/><path fill="#1c7fe5" d="m463 360 10 6-2 2-9-6z"/><path fill="#2283e6" d="M700 594c-3.188 2.125-5.265 2.502-9 3l-1-2c3.782-1.837 5.946-2.158 10-1"/><path fill="#1d80e5" d="M265 433c3.26 3.17 6.222 6.4 9 10h-3c-1.605-1.68-1.605-1.68-3.187-3.875l-1.606-2.18C265 435 265 435 265 433"/><path fill="#1e80e5" d="M776 338c3.603-.412 4.784-.154 7.813 2l2.187 2-1 3-4.395-3.71c-1.47-1.182-3.035-2.244-4.605-3.29"/><path fill="#147be4" d="m489 686 2 4-2.312.875c-2.838 1.088-2.838 1.088-5.688 3.125 1.443-3.366 3.333-5.51 6-8"/><path fill="#2786e7" d="m480 667 2 1-7 8c0-4.39 2.128-5.77 5-9"/><path fill="#1f81e5" d="M307 459h2c-1.161 4.355-2.077 6.646-6 9 0-3 0-3 1.438-4.5L306 462z"/><path fill="#0c72e2" d="m213 685 4 2-1 2h-2v6h-1z"/><path fill="#0e74e2" d="M322 592c2 3.75 2 3.75 2 6h-5c1.875-4.875 1.875-4.875 3-6"/><path fill="#7fbaf2" d="M211 504c5.538.615 5.538.615 7.875 2.563L220 508c-2.812.25-2.812.25-6 0-1.875-2-1.875-2-3-4"/><path fill="#167be4" d="M388 397q1.973 1.43 3.938 2.875l2.214 1.617C396 403 396 403 397 405c-3.918-1.306-6.326-2.831-9-6z"/><path fill="#1d81e5" d="M817 662c-2.918 1.945-4.625 2.453-8 3l-1-2c3.426-1.618 5.38-2.34 9-1"/><path fill="#0e75e3" d="M376 613c5.415-.37 5.415-.37 8.375 1.5L386 616c-7.75-.75-7.75-.75-10-3"/><path fill="#0f77e3" d="m525 486 7 6-1 3v-2l-3-1c-3-3.444-3-3.444-3-6"/><path fill="#368fe8" d="m528 435 2 2-6 5c0-3 0-3 2-5.187z"/><path fill="#0a72e2" d="m756 336 2.188.5c2.676.476 5.101.577 7.812.5-3.265 1.884-6.281 2.493-10 3z"/></svg>