<svg xmlns="http://www.w3.org/2000/svg" width="1024" height="1024"><path fill="#fcfdfe" d="M483.863 150.758c4.778 2.777 9.461 6.081 13.137 10.242v2h2c10.178 12.671 13.747 25.21 15 41l3.46.387c4.453.558 8.791 1.434 13.165 2.425l2.378.538c24.43 5.615 48.098 14.643 68.997 28.65l1.991 1.324c9.53 6.376 18.302 13.149 26.487 21.185a400 400 0 0 0 4.604 4.42C666.242 292.856 685.719 335.216 690 378l.344 3.43c3.857 45.542-4.823 91.498-34.746 127.245-7.832 9.045-16.614 18.67-26.598 25.325 1.326 3.79 2.956 6.399 5.563 9.438 20.86 25.58 35.986 58.98 42.125 91.312l.642 3.246c3.803 19.507 3.104 37.904-2.78 56.973-.68 2.163-.68 2.163-.55 5.031l3.375-.5c12.497-1.494 23.595.147 34.25 7.25 6.735 6.38 9.098 15.046 9.578 24.063.178 9.448-.628 18.035-3.203 27.187l-.554 2.033c-5.338 19.166-14.78 35.57-28.446 49.967l-1.926 2.164C682.446 817.18 676.912 820.655 671 824l-2.227 1.328c-9.148 4.59-21.81 4.39-31.488 1.602-7.355-3.395-7.355-3.395-9.487-6.914-2.03-3.137-3.84-5.561-7.638-6.444-5.767-.642-11.562-.346-17.347-.135q-2.767.063-5.533.115-5.533.117-11.065.298c-3.976.125-7.947.184-11.925.19-3.18.005-6.36.047-9.54.085l-3.434-.01c-5.32-.023-5.32-.023-9.975 2.151-1.486 1.77-1.486 1.77-3.341 4.734-3.173 2.581-6.574 4.769-10 7l-1.746 1.262c-9.547 6.404-25.085 6.041-36.004 4.05-5.508-1.42-10.763-4.176-15.08-7.883-2.602-1.713-3.865-1.745-6.947-1.616l-2.94.076-3.22.111c-11.452.195-22.719-.384-34.125-1.312l-2.324-.18C405.121 820.128 373.88 813.057 347 798l-1.711-.946C333.686 790.546 324.315 782.45 315 773l-2.465-2.469C296.347 753.35 286.832 729.75 282 707l-.462-2.114c-4.49-21.29-3.86-43.628.462-64.886l.422-2.17C288.509 607.09 302.615 575.9 323 552q1.332-1.605 2.66-3.215c5.654-6.81 11.472-13.307 17.996-19.308 1.594-1.551 1.594-1.551 2.344-4.477l-5-2v-2l-2.062-.562C331.25 516.676 326.119 508.612 321 502l-1.559-1.926C314.53 493.857 310.763 486.947 307 480l-1.89-3.488C298.27 463.383 294.1 449.426 291 435l-.462-2.059C285.096 407.695 286.154 379.02 292 354l.534-2.317c1.493-6.326 3.203-12.593 5.638-18.628.648-1.607 1.254-3.23 1.844-4.86C313.494 291.445 340.447 258.25 374 238q1.798-1.15 3.594-2.305c16.45-10.355 34.786-16.917 53.347-22.441 9.08-2.442 9.08-2.442 16.059-8.254 5.803-10.876 6.63-22.081 7.602-34.17.162-1.988.34-3.976.52-5.963l.294-3.559c.983-5.566 3.268-9.666 7.584-13.308 6.89-2.297 14.5-.373 20.863 2.758M477 174l-.332 2.352c-2.753 18.755-5.816 36.886-19.742 50.707-4.134 2.742-8.393 3.65-13.176 4.816-12.939 3.339-25.708 7.25-37.75 13.125l-1.745.835C380.26 257.353 359.374 272.892 343 294l-2.113 2.707c-5.32 7.055-9.684 14.544-13.887 22.293l-1.625 2.926c-19.722 37.133-22.38 83.683-10.563 123.57.996 3.193 2.075 6.348 3.188 9.504l1.078 3.059c4.82 12.507 12.134 24.817 20.922 34.941l2.148 2.512c7.202 8.222 14.569 14.61 23.929 20.205 3.77 2.308 6.68 4.434 8.923 8.283.005 3.661-.545 5.412-2.785 8.309l-2.277 2.129-2.477 2.34A575 575 0 0 1 357 546c-30.949 26.779-52.677 68.302-56.82 109.292-.369 5.53-.405 11.067-.42 16.607-.01 2.135-.041 4.269-.072 6.404-.22 28.882 9.733 58.235 29.312 79.697l2.11 2.355c8.177 8.67 18.307 15.254 28.89 20.645l1.724.889c16.043 8.17 32.703 13.347 50.276 17.111l2.608.567c7.29 1.462 14.604 2.012 22.015 2.438 2.045.119 4.089.25 6.133.382 9.423.583 18.805.712 28.244.613l-.048-2.592c-.308-19.317.13-36.37 6.278-54.931.869-2.363.869-2.363.77-4.477l-2.053.032c-31.418.418-62.57-1.888-89.947-19.032l-3.633-2.18c-10.509-6.363-20.308-13.34-29.555-21.445-2.453-2.59-2.453-2.59-4.812-2.375l-.75-1.687c-1.204-2.44-1.204-2.44-3.312-4.625-2.419-3.355-2.794-5.575-2.938-9.688.938-3.437.938-3.437 2-6 1.392-.252 2.789-.475 4.188-.687l2.355-.387c4.868.147 8.154 3.532 11.582 6.699 8.49 7.66 17.113 14.417 26.875 20.375l3.055 2c8.034 5.186 16.007 8.717 24.945 12l1.953.757c18.858 7.276 42.831 10.46 62.235 3.571C487.915 714.68 493.61 710.365 498 703c1.66-4.977 2.147-10.35.023-15.258A62 62 0 0 0 494 682l-1.918-2.504c-9.367-11.23-24.137-17.84-36.832-24.558-12.053-6.54-22.45-14.391-32.25-23.938l-1.98-1.758c-8.779-7.995-17.133-21.024-18.286-33.004-.069-3.94.2-7.436 1.266-11.238 1.414-.224 2.832-.428 4.25-.625l2.39-.352c2.805-.027 3.996.49 6.36 1.977 1.337 1.904 1.337 1.904 2.516 4.219l1.34 2.562 1.394 2.719c3.953 7.444 7.927 14.332 13.75 20.5l1.461 1.581c4.53 4.742 9.473 8.41 14.914 12.044l2.422 1.656c8.498 6.526 8.498 6.526 18.203 9.719v2l2.238 1.031c10.177 4.862 18.854 10.947 27.106 18.621 1.727 1.568 1.727 1.568 4.656 2.348 1.004 1.797 1.004 1.797 2 4a238 238 0 0 0 2.938 4.25c5.252 7.86 6.744 15.447 8.062 24.75 3.722.885 6.998 1.022 10.813.875 10.005-.045 21.825.48 29.59 7.477L562 708l1.629 1.523c9.176 9.43 11.77 23.667 11.746 36.352l-.005 2.746c-.231 13.056-3.43 25.541-7.733 37.813-.68 2.736-.411 3.928.363 6.566q10.2.037 20.398.055 3.471.008 6.943.02c3.321.013 6.643.018 9.964.023l3.15.015h2.912l2.57.007c2.127.012 2.127.012 4.063-1.12.593-2.222.593-2.222.93-4.926l.464-3.087.481-3.3c2.021-12.912 5.53-23.894 11.125-35.687q1.413-3.029 2.813-6.062l1.269-2.723c1.046-2.123 1.046-2.123.918-4.215l3-1v-1l-1.86.048c-2.839.063-5.677.101-8.515.14l-2.926.076c-8.854.089-17.862-1.204-24.699-7.264-7.002-10.165-8.703-18.78-7-31 1.807-7.31 4.327-14.376 6.836-21.469 6.523-18.735 7.498-41.411 2.613-60.707-1.04-4.227-.95-7.778.926-11.699C606 596 606 596 608 595c3.776-.503 5.456-.376 8.625 1.813 11.858 15.914 9.456 40.157 6.867 58.679-1.773 11.371-4.765 22.535-8.11 33.54-1.844 6.102-2.304 11.805-.507 17.968 3.516 3.309 7.387 3.845 12.125 4 8.966-1.308 16.973-5.857 22.625-12.922 2.705-4.088 4.61-8.518 6.375-13.078l.791-1.862c9.629-24.84-.749-56.055-10.791-79.138l-1.158-2.697C639.96 589.995 634.792 579.285 628 569l-1-2h-2l-.652-2.082c-1.743-3.773-4.173-6.51-6.91-9.606-5.336-6.108-5.336-6.108-6.438-8.312h-2l-.687-1.625c-1.292-2.597-1.292-2.597-3.938-5-2.855-3.408-3.413-6.539-3.164-10.934 1.617-5.002 6.512-6.867 10.789-9.441 2.195-1.6 4.357-3.21 6.5-4.875l1.665-1.286c7.616-5.94 14.897-12.183 20.835-19.839v-2h2c1.649-2.133 3.15-4.25 4.625-6.5l1.347-2.052c23.055-35.829 26.003-81.106 17.608-122.257-5.985-26.47-18.248-50.46-35.58-71.191l-2.176-2.738c-2.114-2.621-4.415-4.908-6.824-7.262l-1.816-1.848C613.376 271.238 606.206 264.26 598 259h-2v-2c-5.805-4.825-12.752-7.998-19.562-11.125q-2.69-1.252-5.38-2.508l-2.608-1.208a201 201 0 0 1-6.555-3.272c-4.09-2.062-8.294-3.538-12.645-4.95l-2.187-.736c-12.33-4.063-24.242-5.921-37.168-6.93-11.571-1.059-11.571-1.059-15.895-5.271-2.975-4.547-2.054-9.972-1.875-15.187.178-12.417-2.351-19.195-10.223-28.88-1.843-2.166-1.843-2.166-4.902-2.933m29.094 555.98c-13.258 17.024-18.075 41.562-15.696 62.532 1.408 7.868 4.294 13.44 10.602 18.488 6.22 3.256 14.574 3.1 21.293 1.43 2.013-.802 2.013-.802 4.707-2.43l2.938-1.562c.68-.475 1.36-.95 2.062-1.438v-2l1.762-.703c9.962-5.773 16.057-21.557 19.094-32.28 4.041-15.228 5.883-31.995-1.801-46.326-2.29-3.671-4.558-4.525-8.617-5.879-13.92-3.078-26.391-.172-36.344 10.168m153.699 4.766c-12.712 17.692-23.863 39.224-21.258 61.617.609 3.454 1.312 5.838 3.465 8.637 4.37 2.656 7.805 3.486 12.887 2.578C665.089 804.787 671.43 799.004 678 791l2.168-2.625c9.584-12.14 15.506-25.596 19.832-40.375l.617-1.957c.593-3.162.555-6.268.57-9.48l.043-3.934c-.217-3.423-.63-5.625-2.23-8.629-12.295-9.142-30.846.342-39.207 10.746"/><path fill="#fcfdfe" d="M554 428c4.5 3.475 8.741 7.237 13 11l2.457 2.016c4.369 3.599 7.372 6.697 9.543 11.984 0 5.374-1.59 8.979-5 13l-1.96 2.316c-11.72 12.752-28.736 19.993-45.95 20.887-19.223.36-37.848-4.315-52.422-17.504-4.051-4.127-7.85-8.295-9.73-13.824.144-6.654 1.547-9.663 6.187-14.375A341 341 0 0 1 475 439l2.02-1.883c22.714-20.632 50.428-27.601 76.98-9.117m-61 23c-2.447 2.647-2.447 2.647-3 6 2.587 5.173 7.994 7.187 13.14 9.113 13.525 4.194 28.005 4.128 40.86-2.113 6.043-2.989 6.043-2.989 9.742-8.187L554 454c-21.544-17.501-38.832-21.872-61-3"/><path fill="#1475e6" d="M483.863 150.758c4.778 2.777 9.461 6.081 13.137 10.242v2h2c10.178 12.671 13.747 25.21 15 41l3.46.387c4.453.558 8.791 1.434 13.165 2.425l2.378.538c24.43 5.615 48.098 14.643 68.997 28.65l1.991 1.324c9.53 6.376 18.302 13.149 26.487 21.185a400 400 0 0 0 4.604 4.42C666.242 292.856 685.719 335.216 690 378l.344 3.43c3.857 45.542-4.823 91.498-34.746 127.245-7.832 9.045-16.614 18.67-26.598 25.325 1.326 3.79 2.956 6.399 5.563 9.438 20.86 25.58 35.986 58.98 42.125 91.312l.642 3.246c3.803 19.507 3.104 37.904-2.78 56.973-.68 2.163-.68 2.163-.55 5.031l3.375-.5c12.497-1.494 23.595.147 34.25 7.25 6.735 6.38 9.098 15.046 9.578 24.063.178 9.448-.628 18.035-3.203 27.187l-.554 2.033c-5.338 19.166-14.78 35.57-28.446 49.967l-1.926 2.164C682.446 817.18 676.912 820.655 671 824l-2.227 1.328c-9.148 4.59-21.81 4.39-31.488 1.602-7.355-3.395-7.355-3.395-9.487-6.914-2.03-3.137-3.84-5.561-7.638-6.444-5.767-.642-11.562-.346-17.347-.135q-2.767.063-5.533.115-5.533.117-11.065.298c-3.976.125-7.947.184-11.925.19-3.18.005-6.36.047-9.54.085l-3.434-.01c-5.32-.023-5.32-.023-9.975 2.151-1.486 1.77-1.486 1.77-3.341 4.734-3.173 2.581-6.574 4.769-10 7l-1.746 1.262c-9.547 6.404-25.085 6.041-36.004 4.05-5.508-1.42-10.763-4.176-15.08-7.883-2.602-1.713-3.865-1.745-6.947-1.616l-2.94.076-3.22.111c-11.452.195-22.719-.384-34.125-1.312l-2.324-.18c-23.816-1.859-48.981-6-70.614-16.508 4.32-1.44 7.314.478 11.375 2.063 8.571 3.161 17.184 5.392 26.125 7.25l3.443.732c14.245 2.85 28.498 4.07 43.01 4.158l3.055.02c4.136.02 8.27.033 12.407.007 3.076-.015 6.15.008 9.226.036l2.8-.047c5.959.09 9.25 1.332 13.758 5.262 8.271 6.975 19.218 6.365 29.427 5.742 9.716-.913 18.137-4.712 25.374-11.223l1.204-1.917c2.583-3.82 4.565-5.787 9.127-6.883 4.24-.357 8.42-.47 12.673-.481q2.351-.042 4.702-.09c3.276-.06 6.55-.09 9.827-.1 4.19-.014 8.376-.101 12.565-.21 3.233-.075 6.466-.112 9.7-.137q2.317-.026 4.633-.087c12.076-.29 12.076-.29 15.775 2.671 1.594 2.158 1.594 2.158 2.74 4.313 1.659 3.023 4.116 3.976 7.179 5.359l3.07 1.433c9.276 3.734 18.69 2.846 27.938-.625 22.163-9.632 35.92-30.238 44.945-51.872 6.35-16.345 10.94-36.743 5.36-53.937-3.57-7.684-9.42-10.807-17.106-13.675C688.507 700.226 678.59 702.47 668 706c1.067-3.2 2.135-6.4 3.219-9.594 13.612-40.998.378-82.099-18.106-119.367C645.726 562.503 636.975 547.305 625 536c1.474-3.63 3.398-5.346 6.5-7.687 32.746-25.558 50.24-61.234 56.021-101.987.54-4.38.657-8.71.682-13.119l.021-2.485q.025-3.955.026-7.91l.002-2.725c-.016-13.235-.346-26.12-3.252-39.087l-.52-2.377c-4.09-18.137-10.66-35.28-19.48-51.623l-.988-1.855c-24.605-45.888-69.371-77.074-118.512-91.957-10.967-3.16-22.294-5.087-33.5-7.188l-.262-3.297c-1.555-17.13-7.608-31.615-20.27-43.691-7.663-6.245-15.514-9.723-25.468-9.012-3.673 1.42-4.754 2.537-6.61 6.031-1.801 4.427-1.826 8.68-1.89 13.406-.497 14.48-1.65 29.85-11.809 41.125-4.585 3.601-10.407 4.704-15.936 6.203-12.433 3.393-24.23 7.42-35.755 13.235l-2.131 1.045C375.285 239.21 360.605 249.51 347 262l-1.561 1.424C330.994 276.76 320.185 292.71 311 310l-1.022 1.91c-21.656 41.244-25.612 94.213-12.375 138.683 5.526 17.712 12.966 34.63 24.745 49.087C324 502 324 502 324 505c-7.503-7.36-12.162-15.803-17-25l-.998-1.85C298.671 464.538 294.236 450.06 291 435l-.462-2.059C285.096 407.695 286.154 379.02 292 354l.534-2.317c1.493-6.326 3.203-12.593 5.638-18.628.648-1.607 1.254-3.23 1.844-4.86C313.494 291.445 340.447 258.25 374 238q1.798-1.15 3.594-2.305c16.45-10.355 34.786-16.917 53.347-22.441 9.08-2.442 9.08-2.442 16.059-8.254 5.803-10.876 6.63-22.081 7.602-34.17.162-1.988.34-3.976.52-5.963l.294-3.559c.983-5.566 3.268-9.666 7.584-13.308 6.89-2.297 14.5-.373 20.863 2.758"/><path fill="#1476e6" d="M475 170c7.993 4.407 13.692 11.535 17 20l1.105 2.578c1.453 5.558.938 11.106.729 16.81-.26 6.878-.26 6.878 3.166 12.612 5.016 2.443 10.574 2.6 16.063 3.063 10.706.943 10.706.943 14.937 1.937v1q-4.47-.214-8.937-.437l-2.518-.12c-17.363-.878-17.363-.878-22.545-5.443-3.6-5.405-3.21-10.033-2.937-16.25.254-13.263-2.9-20.933-12.063-30.75l-2-1-.227 3.742c-1.296 17.838-4.97 35.97-18.347 48.867-4.574 3.897-9.084 5.165-14.863 6.453q-2.928.726-5.852 1.465l-2.915.73A159.6 159.6 0 0 0 406 246l-1.745.835c-37.973 18.227-69.183 48.527-83.942 88.61C306.476 374.891 305.036 415.392 319 455l1.078 3.059c4.825 12.52 12.147 24.793 20.922 34.941l2.066 2.43c3.78 4.426 3.78 4.426 8.172 8.203L353 505v2l1.566.734c3.227 1.678 6.297 3.579 9.372 5.516l1.841 1.121c4.28 2.706 7.446 5.35 10.221 9.629.124 3.897-.588 5.48-3.004 8.527l-2.558 2.41-2.754 2.618a469 469 0 0 1-13.016 11.418c-29.721 25.789-49.519 67.266-53.485 106.313-.373 5.532-.408 11.07-.423 16.613-.01 2.135-.041 4.269-.072 6.404-.22 28.909 9.751 58.198 29.312 79.697l1.887 2.133C339.71 768.497 349.846 774.828 360 780l1.724.889c16.043 8.17 32.703 13.345 50.276 17.111l2.6.567c7.363 1.481 14.756 2.013 22.243 2.438 2.088.12 4.176.25 6.264.382 7.158.436 14.27.698 21.442.546 2.318.063 4.237.406 6.451 1.067l-.484-3.312C467.974 779.178 471 760.256 478 741l-2.053.124C444.52 742.92 413.367 740.143 386 723q-2.01-1.215-4.02-2.426-2.21-1.347-4.418-2.699l-2.156-1.31-2.027-1.26-1.826-1.126C370 713 370 713 368 710c3.638 1.333 6.66 2.972 9.875 5.125C393.55 725.199 410.689 733.095 429 737l2.79.617c15.873 2.876 33.248 2.37 49.21.383l-1.187 3.813c-1.577 5.266-3.022 10.563-4.438 15.875l-.66 2.446c-1.933 7.313-2.91 14.348-2.902 21.928l-.002 2.215c.066 7.025.96 13.804 2.189 20.723-49.298 1.163-104.465-5.934-141.798-41.463-22.925-22.383-33.995-53.63-34.443-85.388-.148-49.05 19.073-94.366 53.241-129.399 3.428-3.368 7-6.433 10.75-9.437 7.86-5.86 7.86-5.86 11.688-14.375-1.866-3.813-4.077-5.01-7.645-7.188-29.609-18.552-47.385-48.82-55.406-82.31-1.024-4.787-1.79-9.58-2.387-14.44l-.275-2.22c-3.809-33.714 1.46-67.284 16.275-97.78l1.578-3.281c7.358-14.43 17.14-27.17 28.422-38.719l2.348-2.535c22.805-24.024 53.58-37.024 84.897-45.699 2.751-.765 5.5-1.535 8.243-2.328.783-.225 1.566-.45 2.373-.68 7.735-2.74 10.956-9.294 14.357-16.326 6.132-13.404 7.661-26.907 8.782-41.432"/><path fill="#1476e7" d="M415 584c4.021 3.429 6.094 6.778 8.25 11.563 6.617 13.99 16.354 24.535 29.125 33.062l2.422 1.656c5.859 3.963 11.874 7.555 18.203 10.719v2l2.75.5c9.44 2.694 17.712 10.442 25.25 16.5l3.063 2.25c10.984 9.332 15.139 21.98 16.937 35.75l3.156-.105c27.271-.635 27.271-.635 36.18 7.39L562 707l1.852 1.746c9.616 9.841 12.548 23.789 12.523 37.129l-.005 2.746c-.232 13.079-3.5 25.564-7.636 37.91-.877 2.519-.877 2.519-.734 5.469h50l1-13c.759-4.403 1.853-8.683 3-13l.688-2.652c1.494-5.377 3.53-10.35 5.917-15.391a247 247 0 0 0 2.946-6.508l1.574-3.574 1.445-3.32C636 732 636 732 639 731c-1.397 3.681-3.041 7.188-4.767 10.721C626.15 758.37 620.987 775.425 620 794c-3.512.799-6.743 1.122-10.341 1.114h-3.154l-3.368-.016-3.476-.005c-3.658-.005-7.316-.018-10.973-.03l-7.448-.014q-9.12-.017-18.24-.049l.612-1.814q1.386-4.117 2.767-8.237l.962-2.852c6.427-19.188 9.934-41.83 2.151-61.156-4.4-8.675-10.06-14.815-19.492-17.941-10.38-2.995-21.404-2.695-32-1l-.078-2.457c-.757-14.784-5.803-26.299-16.578-36.531-9.112-7.821-19.511-13.45-29.952-19.273-23.946-13.39-41.673-29.061-54.103-53.63-1.26-2.393-1.26-2.393-4.289-4.109-3-.5-3-.5-6 0-1.966 2.03-2.922 3.326-3.25 6.156 2.043 19.153 15.297 34.28 29.309 46.516 10.14 8.026 21.458 14.23 32.753 20.453C495.99 675.791 495.99 675.791 501 692c1.073 6.557-1.429 11.622-5 17-8.091 9.074-19.09 13.097-31.011 14.305-3.024.131-6.025.163-9.051.133l-3.282-.023c-36.712-.742-67.561-20.65-94.519-43.924-4.013-3.54-4.013-3.54-9.074-4.741-2.964.038-2.964.038-4.938 1.25-1.43 2.54-1.909 4.787-1.781 7.7 2.402 8.421 12.342 14.764 18.957 20.073 2.384 1.968 4.559 4 6.699 6.227-4.634-1.478-7.896-4.164-11.5-7.312l-1.684-1.436c-12.951-11.138-12.951-11.138-14.753-17.627-.077-4.449.935-6.701 2.937-10.625 1.392-.252 2.789-.475 4.188-.687l2.355-.387c5.077.153 8.508 3.851 12.082 7.136 2.415 2.213 4.642 4.116 7.375 5.938v2l1.66.773c2.74 1.436 5.221 3.11 7.777 4.852C392.884 702.314 407.29 710.843 424 716l1.942.603c18.644 5.559 42.33 7.121 59.933-2.11 5.866-3.667 9.95-7.84 12.125-14.493 1.001-5.372.615-9.58-2.187-14.312-2.318-3.237-4.86-6.009-7.813-8.688l-1.685-1.574c-4.864-4.43-9.89-7.798-15.627-10.989a515 515 0 0 0-15.437-8.5C443.198 649.397 432.796 641.55 423 632l-2.203-1.98c-9.118-8.419-17.729-21.21-19.098-33.782-.12-4.34.022-7.453 2.301-11.238 3.574-2.78 6.795-2.107 11-1"/><path fill="#fcfdfe" d="M439 380c5.434 2.479 9.56 6.936 12.113 12.367 2.2 6.53 1.612 12.88-1.3 19.07-2.624 4.664-5.398 7.222-10.063 9.813-7.214 1.967-13.023.685-19.75-2.25v-2l-1.75-.562c-3.387-2.164-5.024-4.696-6.25-8.438-.822-7.185-.787-13.732 3-20 7.05-8.163 13.541-9.095 24-8m164 0c5.434 2.479 9.56 6.936 12.113 12.367 2.2 6.53 1.612 12.88-1.3 19.07-2.624 4.664-5.398 7.222-10.063 9.813-6.755 1.842-12.598 1.181-18.75-2.25-5.196-4.488-8.626-9.22-9.168-16.148-.067-7.655 1.435-12.405 6.438-18.239 6.184-5.765 12.65-5.459 20.73-4.613"/><path fill="#1475e6" d="M604 539c30.242 24.755 52.02 70.158 56.75 108.543 1.405 19.426.457 38.588-12.5 54.27-5.535 5.922-11.951 9.67-20.055 10.46-9.313.309-9.313.309-12.883-2.523-3.837-4.564-3.484-7.866-3.312-13.75.687-3.231.687-3.231 1.645-6.543l1.048-3.722.556-1.939c7.478-26.312 13.957-57.116 2.24-83.155-1.22-2.74-1.22-2.74-3.489-3.641-4.11-.452-4.11-.452-7.672 1.27-2.395 3.12-1.667 6.995-1.328 10.73q.475 2.751 1 5.492c1.123 6.592 1.346 13.018 1.313 19.696l-.018 3.59c-.246 17.867-4.981 33.625-10.35 50.546-2.784 9.296-3.506 18.814 1.055 27.676 4.003 6.097 8.759 10.491 16 12 9.785.945 19.848.952 29-3-1.152 2.468-2.048 4.048-4 6-3.479.458-6.995.324-10.5.313l-2.898.048c-8.548.006-17.066-1.34-24-6.697-6.733-6.995-9.081-14.625-9.28-24.021.208-10.597 4.016-20.224 7.514-30.112 6.523-18.735 7.498-41.411 2.613-60.707-1.028-4.176-.953-7.743.864-11.636 2.25-2.918 3.888-4.084 7.562-4.563 4.05.486 5.35 1.38 8.125 4.375 11.649 18.18 7.901 46.066 4 66a346 346 0 0 1-6.62 25.03c-1.05 3.458-1.653 6.54-1.63 10.158l-.016 2.48c.3 2.623.738 4.172 2.266 6.332 5.897 2.71 11.663 2.186 17.617.04 11.13-4.854 15.88-11.99 20.305-23.11L656 682l1.042-2.79c7.228-24.225-2.415-53.083-12.042-75.21l-1.158-2.697c-4.51-10.446-9.152-20.537-15.444-30.037C627 569 627 569 627 567h-2a91 91 0 0 1-3.75-5.062c-2.456-3.478-4.92-6.82-7.75-10C611 549 611 549 611 547h-2c-5-5.476-5-5.476-5-8"/><path fill="#1375e6" d="M587 251c4.362 1.503 7.915 3.818 11.625 6.5l1.856 1.333c4.995 3.654 9.547 7.618 14.058 11.858 2.186 2.051 4.422 4 6.711 5.934 3.991 3.5 7.422 7.242 10.75 11.375l1.313 1.628c31.343 39.267 43.028 87.62 38.226 137.255-.569 4.444-1.447 8.773-2.539 13.117l-.602 2.447c-3.045 11.98-7.402 22.762-13.398 33.553l-1.492 2.754c-10.795 18.997-26.467 33.568-44.51 45.578-4.14 2.713-4.14 2.713-5.998 7.23 0 2.773.07 4.853 1 7.438-3-2-3-2-3.469-4.242-.084-7.113-.084-7.113 2.344-9.946L606 523a317 317 0 0 0 4.438-3.062l2.613-1.82C628.998 506.962 628.998 506.962 641 492h2l.805-2.23c1.182-2.74 2.515-4.72 4.32-7.082 23.441-33.042 24.66-77.61 18.45-116.334-5.018-27.62-17.856-58.28-38.388-78.104C627 287 627 287 627 285l-3-1c-1.402-1.46-1.402-1.46-2.937-3.375-6.766-7.953-14.535-15.138-23.516-20.504L596 259v-2l-2.25-.75c-2.951-1.341-4.598-2.86-6.75-5.25"/><path fill="#1475e6" d="m346 525 3 3c-3.378 3.47-6.758 6.857-10.5 9.938-3.945 3.341-7.23 7.065-10.5 11.062l-2.242 2.734c-27.098 34.11-44.295 76.355-44.019 120.245.011 2.02 0 4.04-.012 6.06-.015 12.372 1.233 24.506 4.523 36.461l.655 2.415c9.56 34.12 30.598 61.469 61.43 78.98A393 393 0 0 0 356 800c-2.32.814-3.544 1.17-5.884.294-.644-.39-1.288-.78-1.952-1.18l-2.205-1.327-2.334-1.475-2.418-1.505C333.497 789.886 326.682 784.22 320 778l-2.477-2.23C298.201 757.574 287.363 732.58 282 707l-.458-2.101c-4.493-21.296-3.865-43.635.458-64.899l.422-2.17C288.509 607.09 302.615 575.9 323 552q1.332-1.605 2.66-3.215c5.654-6.81 11.472-13.307 17.996-19.308 1.594-1.551 1.594-1.551 2.344-4.477"/><path fill="#1274e6" d="M554 428c4.5 3.475 8.741 7.237 13 11l2.457 2.016c4.369 3.599 7.372 6.697 9.543 11.984 0 5.374-1.59 8.979-5 13l-1.96 2.316c-11.72 12.752-28.736 19.993-45.95 20.887-19.223.36-37.848-4.315-52.422-17.504-4.051-4.127-7.85-8.295-9.73-13.824.144-6.654 1.547-9.663 6.187-14.375A341 341 0 0 1 475 439l2.02-1.883c22.714-20.632 50.428-27.601 76.98-9.117m-53-5-2.566.992C490.528 427.47 484.365 433.31 478 439l-2.98 2.61c-6.576 5.38-6.576 5.38-9.582 13.015.148 5.79 3.837 9.279 7.562 13.375l1.46 1.844c8.317 9.68 24.176 15.497 36.54 17.156 13.547.942 25.424.22 38-5l3.227-1.281C562.737 476.047 571.844 468.37 577 458c.43-3.682.504-4.783-1-8-3.275-4.122-7.038-7.564-11-11l-1.633-1.437c-14.123-12.257-28.262-19.553-47.191-18.747-5.363.453-10.223 2.176-15.176 4.184"/><path fill="#1475e6" d="M550 721c8.306 8.683 7.506 20.907 7.309 32.059-.793 20.62-9.538 41.186-24.512 55.507-8.066 6.435-16.765 7.202-26.797 6.434-5.825-1.436-9.402-4.848-12.75-9.715-8.396-15.349-5.571-33.18-1.25-49.285 1.624-5.172 3.703-10.089 6-15 .4-.86.802-1.72 1.215-2.605 5.039-9.858 11.9-17.02 22.41-20.645 9.476-2.016 19.907-1.848 28.375 3.25m-43.906 8.98c-13.258 17.024-18.075 41.562-15.696 62.532 1.408 7.868 4.294 13.44 10.602 18.488 6.22 3.256 14.574 3.1 21.293 1.43 2.013-.802 2.013-.802 4.707-2.43l2.938-1.562c.68-.475 1.36-.95 2.062-1.438v-2l1.762-.703c9.962-5.773 16.057-21.557 19.094-32.28 4.041-15.228 5.883-31.995-1.801-46.326-2.29-3.671-4.558-4.525-8.617-5.879-13.92-3.078-26.391-.172-36.344 10.168"/><path fill="#1274e6" d="M696.438 720.188c2.987 2.113 4.007 3.501 5.562 6.812.321 2.89.477 5.491.438 8.375l-.028 2.414c-.68 23.724-14.504 47.104-31.41 63.211-7.894 6.201-14.847 9.208-25 8-4.56-2.198-6.86-4.456-9-9-.461-2.966-.475-5.878-.437-8.875l.022-2.55c.56-21.567 11.63-44.088 26.415-59.575 9.132-7.801 21.65-12.885 33.438-8.812m-36.645 14.558c-12.712 17.692-23.863 39.224-21.258 61.617.609 3.454 1.312 5.838 3.465 8.637 4.37 2.656 7.805 3.486 12.887 2.578C665.089 804.787 671.43 799.004 678 791l2.168-2.625c9.584-12.14 15.506-25.596 19.832-40.375l.617-1.957c.593-3.162.555-6.268.57-9.48l.043-3.934c-.217-3.423-.63-5.625-2.23-8.629-12.295-9.142-30.846.342-39.207 10.746"/><path fill="#1476e6" d="M538 440c6.816 4.407 13.024 9.52 19 15-6.269 8.472-14.58 13.202-25 15-15.039 1.43-29.256-.349-42-9-2.562-2.187-2.562-2.187-4-4 0-2 0-2 1.469-3.516C494.573 447.42 501.393 441.777 510 438l2.75-1.25c8.982-2.073 17.195-1.236 25.25 3.25m-45 11c-2.447 2.647-2.447 2.647-3 6 2.587 5.173 7.994 7.187 13.14 9.113 13.525 4.194 28.005 4.128 40.86-2.113 6.043-2.989 6.043-2.989 9.742-8.187L554 454c-21.544-17.501-38.832-21.872-61-3"/><path fill="#1d7ce8" d="M439 380c5.434 2.479 9.56 6.936 12.113 12.367 2.2 6.53 1.612 12.88-1.3 19.07-2.624 4.664-5.398 7.222-10.063 9.813-7.214 1.967-13.023.685-19.75-2.25v-2l-1.75-.562c-3.387-2.164-5.024-4.696-6.25-8.438-.822-7.185-.787-13.732 3-20 7.05-8.163 13.541-9.095 24-8m-21.375 7.5c-4.203 6.467-4.218 11.843-3.625 19.5 1.71 5.535 5.454 8.637 10 12 4.224 2.112 9.413 1.5 14 1 4.96-1.779 9.013-4.967 11.375-9.785 1.81-6.416 1.735-13.68-1.062-19.777-2.577-4.295-5.595-6.69-10.188-8.688-8.225-1.974-14.674-.383-20.5 5.75"/><path fill="#1a7be7" d="m470 790 2 1a99 99 0 0 1 1.125 7.063l.508 3.91L474 805c-30.388.717-59.895-1.936-89-11l1-2a275 275 0 0 1 17.327 3.853c17.074 4.338 33.907 5.32 51.474 5.806 5.48.157 10.795.397 16.199 1.341z"/><path fill="#1879e7" d="M603 380c5.434 2.479 9.56 6.936 12.113 12.367 2.2 6.53 1.612 12.88-1.3 19.07-2.624 4.664-5.398 7.222-10.063 9.813-6.755 1.842-12.598 1.181-18.75-2.25-5.196-4.488-8.626-9.22-9.168-16.148-.067-7.655 1.435-12.405 6.438-18.239 6.184-5.765 12.65-5.459 20.73-4.613m-20.84 6.813c-4.292 5.493-4.91 10.364-4.543 17.234.853 6.582 3.828 9.711 8.762 13.754 4.609 3.41 10.13 2.79 15.621 2.199 4.678-1.61 7.926-4.282 10.5-8.5 2.362-5.627 2.468-11.537 1.5-17.5-2.299-5.339-5.527-9.696-11-12-7.75-2.842-15.111-.831-20.84 4.813"/><path fill="#1072e6" d="M556 740h1c.975 24.663-4.497 46.016-20.781 65.086-5.129 5.525-11.701 9.622-19.364 10.117l-3.668.047-3.644.078c-3.833-.355-6.24-1.406-9.543-3.328 3-1 3-1 6 0 7.6.497 14.273.802 21-3l1.969-.879c11.689-6.451 19.675-24.901 23.281-36.933 2.556-10.203 3.079-20.722 3.75-31.188"/><path fill="#1d7de8" d="M658 638h1c3.97 19.426 4.263 41.805-7 59-5.453 7.439-11.46 12.49-20.437 14.938L629 712l-2-2 1.906-.48c9.858-2.688 16.866-6.5 22.094-15.52 1.865-3.932 3.497-7.917 5-12l1.053-2.752c1.033-3.543 1.19-6.464 1.177-10.15l-.005-3.948-.02-2.035c-.017-2.043-.02-4.086-.02-6.129-.022-7.455-.022-7.455-.758-14.863L657 639z"/><path fill="#2280e8" d="M452 821q6.615-.224 13.232-.33 2.247-.044 4.493-.123c14.038-.477 14.038-.477 19.04 3.328l1.65 1.594c6.594 6.37 15.679 5.972 24.233 5.876 5.978-.166 11.557-.8 17.352-2.345l-1 3c-15.843 2.904-30.08 3.97-44-5l-1.68-1.537c-3.186-2.009-5.744-1.994-9.492-2.193l-2.068-.122c-2.17-.125-4.34-.23-6.51-.336q-2.212-.121-4.426-.248A1493 1493 0 0 0 452 822z"/><path fill="#1173e6" d="M439 380c5.586 2.548 9.356 7.026 12.313 12.375.95 3.63.814 6.877.687 10.625-1.476-2.77-2.46-5.423-3.312-8.437-1.899-5.752-4.718-8.505-10.063-11.375-5.411-1.773-9.503-1.903-14.75.312-4.556 2.464-6.512 6.04-8.875 10.5l-2 3c.366-7.203.366-7.203 3.188-10.75L419 384l2.438-2.312c5.698-2.7 11.372-2.41 17.562-1.688"/><path fill="#1677e7" d="M528 228c7.635.4 14.352 2.081 21.563 4.563l3.164 1.073c12.02 4.177 23.716 9.176 34.273 16.364-3 1-3 1-6.441-.477a347 347 0 0 1-4.121-2.148l-2.198-1.126a424 424 0 0 1-8.885-4.686C553.817 235.419 540.701 231.839 528 229z"/><path fill="#0e71e6" d="m481 738-1.187 3.813q-.91 3.092-1.813 6.187l-.6 1.968c-4.017 13.26-5.604 26.22-6.4 40.032h-1c-.55-17.602 2.103-32.425 8-49h-17v-1q3.592-.505 7.188-1l2.04-.29c3.619-.493 7.12-.823 10.772-.71"/><path fill="#2b82e9" d="m470 790 2 1a99 99 0 0 1 1.125 7.063l.508 3.91L474 805c-4.354.03-8.708.047-13.062.063l-3.725.025c-5.84.016-11.465-.003-17.213-1.088v-1c4.416-.197 8.833-.38 13.25-.562l3.8-.17 3.653-.147 3.364-.143C467 802 467 802 471 803z"/><path fill="#207de8" d="M694 700c7.64.965 14.368 3.664 20 9 7.162 10.384 7.312 19.888 6 32h-1l-.078-3.332c-.338-15.354-.338-15.354-8.047-28.106-3.535-2.649-7.405-4.217-11.543-5.703-2.208-.813-4.25-1.768-6.332-2.859z"/><path fill="#0e70e5" d="M696.438 720.188c2.988 2.113 4.019 3.494 5.562 6.812.21 2.857.286 5.472.188 8.313l-.042 2.244A430 430 0 0 1 702 743h-1l-.184-2.887-.254-3.8c-.08-1.242-.162-2.483-.246-3.762-.26-2.933-.664-5.685-1.316-8.551-7.731-3.343-15.317-2.875-23.062.063l-2.723 1.16L671 726l-2-1q2.371-1.226 4.75-2.437l2.672-1.372c6.375-2.946 13.374-3.298 20.015-1.004"/><path fill="#1577e7" d="M617 679c1.051 3.63.747 5.512-.437 9.125-1.752 6.002-2.713 11.946-.926 18.05 2.043 2.735 4.211 2.878 7.488 3.575l3.32.734L629 711v1c-9.672.86-9.672.86-13.562-2.25-3.99-4.5-3.686-7.82-3.438-13.75.659-3.037 1.561-5.977 2.5-8.937l.723-2.362A766 766 0 0 1 617 679"/><path fill="#0d70e5" d="M475 170c7.645 4.587 14.165 11.347 17 20 .548 2.999.86 5.956 1 9-1.48-2.818-2.579-5.623-3.625-8.625-2.324-5.925-6.487-13.431-12.375-16.375l-1 10h-1z"/><path fill="#2782e9" d="M488 776h1l.332 2.387A549 549 0 0 0 491 789l.555 3.477c1.443 7.606 3.68 12.296 9.445 17.523l-2 2c-9.915-10.556-11.435-21.947-11-36"/><path fill="#0a6de5" d="m470.688 147.438 2.449.308L475 148v1l-1.793.113c-6.623.52-6.623.52-12.207 3.887-3.128 5.475-3.636 10.77-4 17h-1c-.356-8.142-.551-13.894 5-20.312 3.261-2.752 5.64-2.779 9.688-2.25"/><path fill="#0364e3" d="m565 791 2 2c1.855.329 1.855.329 3.99.319l2.488.06 2.686.035 2.75.059c2.903.06 5.807.106 8.711.152l5.898.117q7.239.142 14.477.258v1h-45z"/><path fill="#2380e8" d="m542 719-1.924.168q-4.35.382-8.701.77l-3.027.263c-4.823.431-9.585.897-14.348 1.799 6.455-5.917 20.709-7.86 28-3"/><path fill="#1877e7" d="M669 370h1q.509 3.53 1 7.063c.095.656.19 1.313.29 1.99.599 4.348.801 8.56.71 12.947h-3a2244 2244 0 0 1-.562-9.875l-.17-2.84-.147-2.715-.143-2.507C668 372 668 372 669 370"/><path fill="#237fe8" d="M492 678c4.96 4.271 8.48 9.48 9.246 16.137.004 1.926.004 1.926-.246 4.863l-2 1-.043-1.906c-.325-5.826-1.343-9.581-4.8-14.305-1.244-1.923-1.724-3.554-2.157-5.789"/><path fill="#1b7ae7" d="M455 167c3.82 5.731 2.14 13.45 1 20-2-2-2-2-2.135-3.88l.158-2.253.157-2.441.195-2.551.172-2.574c.142-2.101.296-4.201.453-6.301"/><path fill="#0463e4" d="M672 392v21h-1c-1.258-6.742-2.264-13.135-2-20 2-1 2-1 3-1"/><path fill="#0b6ee5" d="M614 706h2l1 2c2.805.915 2.805.915 6.063 1.625 1.104.26 2.209.52 3.347.79.855.192 1.71.386 2.59.585v1c-8.957.626-8.957.626-13.125-1.875C614 708 614 708 614 706"/><path fill="#1375e6" d="M548.227 719.93C550 721 550 721 551.5 723.688L552 726l-2.5-1.875c-3.651-2.463-7.214-3.238-11.5-4.125 3.603-2.853 6.33-1.678 10.227-.07"/><path fill="#1c7ce8" d="M566 440c3.6.556 5 1.749 7.25 4.563l1.578 1.94L576 448c-3 0-3 0-4.824-1.496l-1.864-1.942-1.886-1.933C566 441 566 441 566 440"/><path fill="#1d7be7" d="m405 243 1 3-11 5v-3z"/><path fill="#2a85e9" d="m443 416 2 2c-7.37 4.46-7.37 4.46-12 3.75l-3-.75v-1l2.082-.367 2.73-.508 2.708-.492c2.707-.545 2.707-.545 5.48-2.633"/><path fill="#2082e9" d="M669 381c3.317 4.423 3.305 5.72 3 11h-3z"/><path fill="#1777e7" d="M615 247c3.392.593 5.21 1.767 7.75 4.063l1.86 1.66L626 254l-2 2a1496 1496 0 0 1-4.5-3.937l-2.531-2.215L615 248z"/><path fill="#1f7ee8" d="M615 811c5.373-.44 5.373-.44 8 0 2 2.5 2 2.5 3 5l-2 1-2-3c-3.557-1.219-3.557-1.219-7-2z"/><path fill="#1b7be8" d="M547 700c6.178.337 6.178.337 8.938 2.563L557 704c-2.818 1.41-4.173.509-7.125-.437l-2.758-.872L545 702z"/><path fill="#2b85e9" d="m638 776 2 2c-.023 2.164-.023 2.164-.375 4.625l-.336 2.477L639 787h-2z"/><path fill="#1475e6" d="M538 441q2.224 1.178 4.438 2.375l2.496 1.336C547 446 547 446 548 448c-4.385-.501-6.8-1.983-10-5z"/><path fill="#2683e9" d="m675 793 2 2-7 6-1-2h2l2-4h2z"/><path fill="#1b7ae7" d="M381 696c3.796.542 5.472 2.201 8 5-3.599 0-5.095-.958-8-3z"/><path fill="#1b7be7" d="m333 273 1 3c-1.404 2.264-3.197 4.02-5 6l-1-3c1.404-2.264 3.197-4.02 5-6"/><path fill="#1879e7" d="m561 216 9 3-3 2c-3.687-1.375-3.687-1.375-7-3z"/></svg>