<svg xmlns="http://www.w3.org/2000/svg" width="1365.333" height="1365.333" viewBox="0 0 1024 1024"><path d="M381.3 107.5c-4.1 2.9-4.6 5-2.7 12.3 1.9 7.6 1.4 20.9-1 26.6-1.2 2.9-2 3.4-5.8 3.9-2.5.3-10.1 2.4-16.9 4.7-59.2 19.4-100.7 66.3-114 129-1.9 8.7-2.3 13.8-2.3 30-.1 16.8.2 21 2.2 30.4 4 18.7 11.1 36.8 19.8 50.3 1.9 2.9 3 5.3 2.6 5.3s-.2.4.4.8c1.3.8 11.4 12.9 11.4 13.6 0 .2-3 3.3-6.6 6.8-10.1 9.6-21.5 25.5-29.5 41.1-6.8 13.4-7.2 13.8-9.7 13.2-4.7-1.1-16.4-6.7-26.2-12.6-14.4-8.6-15.9-9.2-19.8-8.5-1.9.3-4.3 1.3-5.4 2.3-4.2 3.8-5.1 7.2-5.1 19.8.1 53.6 36.9 108.9 91.2 136.9 15.5 8 39.7 16.5 54.6 19.1 19.8 3.6 50.9 5.1 72.5 3.5 59.9-4.2 103.1-23.6 123.4-55.3 3.8-5.9 9.6-19.3 9.6-22.1 0-.9 1.9-2.7 4.3-4.2 2.3-1.4 5.4-3.4 6.9-4.5 1.5-1 3.2-1.9 3.8-1.9s1 5.6 1 16c0 19.2 1.7 25.9 7.8 31.7 7.9 7.5 11.2 8.2 46.7 9.8 7.7.3 26.8 1.2 42.5 2 51.6 2.7 59.3 3 75.5 3h16l43.5-11.7c23.9-6.5 45.9-12.4 48.8-13.3 5.9-1.8 12.4-7 14.1-11.3.5-1.5 3.7-18.2 7-37.2s9-50.7 12.5-70.5c3.6-19.8 6.7-37.1 7-38.5.2-1.4 2.5-14.4 5.1-29l4.8-26.6-1.7-5.8c-3.3-11.4-14.4-18.6-28.6-18.6-3.9 0-7-.4-7-.8 0-.5 3.4-11 7.6-23.3 5.9-17.5 7.5-23.2 7.1-26.2-.7-4.8-2.9-8.3-7-10.7-3.1-1.9-5.3-2-49.7-1.9-64.9.2-89.7 1-93.5 3-7.9 4.3-8.9 4.9-8.1 4.9.5 0 0 1-1.1 2.2-3.3 3.7-4.3 6.1-12.4 30.8l-7.6 23.5-11.4.6c-12.1.6-16.6 1.9-22.8 6.7-2 1.5-4 2.5-4.6 2.4-.5-.2-.7 0-.3.3.4.4-.7 2.5-2.5 4.5-1.8 2.1-7 11.8-11.7 21.7-4.6 9.8-8.7 18-9 18.3s-.6.9-.7 1.5c-.1.5-4.5 10.1-9.8 21.3-5.2 11.2-9.5 20.7-9.5 21.1 0 .5-3.7 1.1-8.2 1.4-6.4.4-11.7 1.7-23.3 5.6-8.2 2.8-15.4 5.1-16.1 5.1-.6 0-3.7-4-6.8-8.9s-6.3-9.4-7.1-10.1c-2.4-2-1.8-3.4 2.8-6.7 4-3 22.7-21 22.7-22 0-.2 1.5-2.3 3.3-4.6 13.4-16.8 24-42.9 27.2-67.4 1.8-13.5 1.9-22.9.4-36.1-2.4-22.5-7.7-40-18.4-61.7-9.1-18.4-19.2-32.2-33.8-46.1-13.5-12.9-26.1-21.8-42.2-29.8-12.7-6.4-31.7-13.6-35.7-13.6-1.6 0-1.9-.4-1.3-2.3 2.3-7.4 1.8-11.5-2.3-17.6-8.2-12.2-17.5-11.9-22.2.7s-10.9 19.2-9.6 10.3c.6-4.8-1.6-14-4.7-19.1-7.8-13.2-23.8-22.3-30.4-17.5m47.3 65.6c57.3 5.7 104.7 42.8 122.3 95.5 6 18 7.5 27.8 7.5 50.9.1 20-.1 21.5-2.8 32-5.4 20.7-14.8 38.2-28.2 52.4-7.5 8-19.7 17.6-26.6 20.9-2.4 1.2-5.5 3.3-6.8 4.7-4.3 4.6-2.2 11.9 4.3 15.3 6.3 3.3 17.7 16.8 17.7 21 0 4.7-38.6 8-55 4.7-14.9-3-29.9-9.3-42-17.5-3.2-2.2-6.8-4-7.9-4-3.6 0-8.4 5.2-8.4 9 0 2.8 1 4.3 6.7 9.6 3.6 3.5 6.9 6.3 7.2 6.3.2 0 3.1 1.6 6.3 3.5 23.1 14.1 48.3 19 77.1 15.2 20.8-2.8 35.1-6.6 64.5-17 10.9-3.9 14.2-4.6 20.3-4.6 5.5 0 7.4.4 7.8 1.5 1.9 4.9-4.9 13.1-15 18-4 2-7.9 3.7-8.8 3.9-2.8.4-8.2 4.7-11.8 9.4-5 6.5-14.2 16.4-14.8 15.8-.2-.3-1.3.5-2.3 1.8-2.2 2.8-13.2 10.2-23 15.5-9.5 5.2-28.4 11.4-42.4 14.1-6 1.2-11.9 2.3-13.1 2.5-1.1.3-3.7 1.8-5.8 3.4-6.5 5.2-12.4 6.6-28.1 6.6-11.5 0-15.4-.5-22-2.3-18-5.2-36.4-16.2-51-30.4-10.2-10-12.6-10.9-17.5-5.9-6.5 6.4-4.8 11.3 9 25.1 16 16 34.3 27 55 33.1 8.5 2.5 13 3.2 23.6 3.6 19.4.8 31.5-1.8 42.7-9.4 3.9-2.6 7.8-4.1 15.7-5.9 12.5-2.9 14-2.9 14-.7 0 5.5-15.3 19.3-28.5 25.8-13.4 6.6-41 13.8-63.5 16.5-35.1 4.2-76.2.9-105.5-8.6-16.8-5.5-42.5-17.8-42.5-20.5 0-.5-.4-.8-.9-.6-1.7.4-17.6-13-24.4-20.7-13-14.8-25.3-36.1-31.7-55.3-3.4-10.2-5-21.3-3.1-21.3.6 0 6.6 2.7 13.4 6 6.7 3.3 15.3 6.8 19 7.7l6.8 1.8 4.7-2.6c4.1-2.2 5.2-3.6 8.8-11 2.3-4.6 4.6-8.9 5-9.4.5-.6 1-1.6 1.1-2.2.5-2.6 10.9-19 17.8-28.2 7.5-10 16.7-19.2 23.6-23.8 4.2-2.7 7.9-7.9 7.9-10.8 0-1-4-5.9-8.8-10.9-9.7-10-15.1-17.5-20.4-28.1-13.5-26.8-16.9-59.1-9.8-91.5 5.4-25.1 18.1-48.8 36-67.4 31.7-32.9 75.4-47.6 126.6-42.5M824 307.8c0 1.6-.7 4.8-1.4 7.3-.8 2.4-3.8 11.7-6.6 20.7l-5.2 16.3-60.4-.3c-34.4-.1-60.4-.6-60.4-1.1 0-2.5 13.4-42.4 14.8-44s5.6-1.7 60.4-1.7H824zm-44.4 65.3c4.3 1.3 7.5 5 8.1 9.6.4 3.3-2.6 11.6-21.5 58.8-12 30.2-27.2 68.4-33.6 84.7-9.9 25.2-12.2 30.2-15.1 32.7-6.3 5.5-9.3 5.6-61.8 3.7-26-1-49.4-1.9-52.2-2.1-2.7-.2-11.2-.7-18.9-1-14.8-.7-17.3-1.2-20.6-4.5-3.7-3.7-2.7-8.6 5.1-24.9l7.1-14.9 8.5-4.2c22.4-11.1 35-32.3 28.3-47.8-1.2-2.8-2.8-5.7-3.6-6.3s-1.4-2-1.4-3.1c0-2.7 32.8-73.8 35.4-76.7 1.2-1.3 3.8-3.1 5.9-4.1 3.6-1.6 8.4-1.7 65.5-1.3 34.5.3 63.1.9 64.8 1.4"/><path d="M509.4 285.8c-12.1 7.6-12.3 24.9-.5 32.9 5.8 3.9 12.6 2.7 18.3-3.4 5.1-5.4 6.3-13.5 2.9-20.9-3.9-8.5-14.1-12.7-20.7-8.6m-125.9 2.9c-6.6 3.5-11.4 10.4-11.5 16.7-.1 11.9 11.6 23.3 21.2 20.6 1.7-.5 3.9-1.7 4.9-2.6 1.1-1 1.9-1.3 1.9-.8 0 1 2.2-2.6 4.1-6.6 4.1-9 .5-21-8-26.7-3.9-2.7-8.3-2.9-12.6-.6m67.5 27c-9.4 3.3-20.2 11.7-28 21.8-8 10.4-7.3 16.3 3.4 26.3 18.5 17.2 39.4 20 59.7 7.9 5.8-3.4 20.2-17.3 19.8-19.2 0-.3.2-1.8.6-3.4.9-4.2-2.3-9.8-10-17.5-12.5-12.5-22.4-17.6-34-17.5-3.8 0-9 .8-11.5 1.6m20.5 23.8c5.2 2.5 10.5 6.7 10.5 8.4 0 1.4-6.5 4.9-12.7 6.7-6.5 1.9-12.6 1.4-20.9-1.7-5.6-2.1-6.7-4-4.1-7 7.4-8.6 17.7-11.1 27.2-6.4m186.3 52.6c-.9.8-6 10.8-11.3 22.4-12.6 27.3-12.2 26.2-10.8 27.6.8.8 16.4 1.3 53 1.7l51.9.5 3.1-2.9c2.3-2.2 5.2-8.4 11.7-24.7 4.8-12 8.5-22.5 8.2-23.3-.4-1.2-5.5-1.4-29.9-1.4-16.2 0-39.5-.3-51.8-.6-18.1-.5-22.7-.4-24.1.7M629 466.9c-1.8 3.6-3.2 7.7-3.3 9.1-.2 2.5-.2 2.5 10.6 3 5.9.3 10.7.2 10.7-.3 0-.4.7-.7 1.5-.7s1.4-.3 1.3-.8c-.1-.4.4-1.9 1-3.5 2.4-5.4 3.4-8.3 4.2-11l.9-2.8-11.9.2-11.9.1zm42-5c-.8 1-1.6 2.4-1.8 3.2s-1.6 4.1-3.2 7.4-2.7 6.2-2.4 6.4c.2.3 5.1.6 10.9.8 11.4.3 12.5-.1 15.2-5.7 1.7-3.6 4.4-11.3 4.3-12.5 0-.5-4.7-1-10.7-1.1-9.2-.2-11 0-12.3 1.5m38.4.2c-.3.5-.3.9.1.9.3 0-.4 1.9-1.6 4.2-1.1 2.2-2.7 5.8-3.4 7.9-1.7 4.8-1.4 4.9 11.8 4.9h10.2l3.4-8.4c1.8-4.6 3-8.9 2.6-9.5-.8-1.4-22.2-1.4-23.1 0M618 492.5c-.5.6-.7 1.5-.3 1.8.3.4 0 .7-.7.7s-1.1.3-.7.6c.3.4-.1 2.1-1 3.8-1 1.7-1.6 3.4-1.5 3.8.1.5-.2.8-.6.8-.5 0-.9.6-.9 1.2 0 .7-.2 2-.4 2.8-.3 1.3 1.5 1.5 11.4 1.8 11.2.2 11.9.2 12.4-1.8.3-1.1.9-2 1.4-2s.9-.9.9-2 .5-2 1.2-2c.6 0 .9-.3.5-.6-.3-.3.3-2.6 1.4-5.1 1-2.4 1.9-4.7 1.9-4.9 0-.3-5.4-.4-12-.3-8.1.1-12.3.5-13 1.4m41.9-.3c-1.9.7-10.1 16.5-9.3 17.9.2.3 5.4.6 11.6.5l11.2-.1 2.3-3.3c2.1-3.2 6.7-14.2 6.1-14.7-.7-.7-20.2-.9-21.9-.3m37.8 1.6c-2 2.2-6.4 12-6.9 15.3-.3 2.4-.3 2.4 10.2 2.7 9.9.3 10.7.2 12.7-2 1.2-1.3 3.4-5.4 4.8-9.2 2.1-5.5 2.3-7.1 1.3-7.7-.7-.5-5.6-.9-10.9-.9-7.9 0-9.9.3-11.2 1.8m-91 29.9c-1.8 2.1-7.7 14.2-7.7 16 0 .7 1.5 1.5 3.3 1.8 4.3.8 20.3.2 20-.7-.1-.4 1.5-4.6 3.6-9.2 4.6-9.9 5-9.6-9-9.6-6.9 0-8.9.3-10.2 1.7m39 .5c-1.7 1.3-7.7 14-7.7 16.3 0 2 2.4 2.5 12.4 2.5 7.6 0 9.6-.3 10.9-1.8 2.3-2.5 7-15 6.3-16.7-.7-2-19.3-2.2-21.9-.3m39 1.6c-2.1 2.3-6.7 13.4-6.7 16.2 0 1.9.6 2 10.3 2 5.6 0 10.7-.4 11.4-.8 1.5-.9 6.3-11.3 7.3-15.7l.7-3.3-10.6-.1c-9.3-.2-10.9.1-12.4 1.7"/></svg>